<?xml version="1.0" encoding="iso-8859-1"?>
<!-- Uploaded to: SVG Repo, www.svgrepo.com, Generator: SVG Repo Mixer Tools -->
<svg fill="#000000" height="800px" width="800px" version="1.1" id="Layer_1" xmlns="http://www.w3.org/2000/svg" xmlnsXlink="http://www.w3.org/1999/xlink" 
	 viewBox="0 0 512 512" xmlSpace="preserve">
<g>
	<g>
		<g>
			<path d="M407.088,393.592h-71.044c-6.896,0.001-12.487,5.592-12.487,12.489v71.036c0,11.122,13.439,16.7,21.308,8.84
				c20.325-20.3,50.763-50.733,71.064-71.057C423.789,407.031,418.211,393.592,407.088,393.592z"/>
			<path d="M423.232,0H88.769C78.424,0,70.037,8.387,70.037,18.732v474.537c0,10.345,8.387,18.732,18.732,18.732h197.324
				c6.897,0,12.488-5.591,12.488-12.488V381.105c0-6.897,5.591-12.488,12.488-12.488h118.407c6.897,0,12.488-5.591,12.488-12.488
				V18.732C441.964,8.387,433.577,0,423.232,0z M217.694,68.828h76.613c6.896,0,12.488,5.591,12.488,12.488
				c0,6.897-5.592,12.488-12.488,12.488h-76.613c-6.896,0-12.488-5.591-12.488-12.488C205.206,74.419,210.799,68.828,217.694,68.828
				z M164.675,158.679h12.512c6.896,0,12.488,5.591,12.488,12.488c0,6.897-5.592,12.488-12.488,12.488h-12.512
				c-6.896,0-12.488-5.591-12.488-12.488C152.187,164.27,157.778,158.679,164.675,158.679z M164.675,223.102h12.512
				c6.896,0,12.488,5.591,12.488,12.488c0,6.897-5.592,12.488-12.488,12.488h-12.512c-6.896,0-12.488-5.591-12.488-12.488
				C152.187,228.693,157.778,223.102,164.675,223.102z M164.675,287.525h12.512c6.896,0,12.488,5.591,12.488,12.488
				c0,6.897-5.592,12.488-12.488,12.488h-12.512c-6.896,0-12.488-5.591-12.488-12.488
				C152.187,293.116,157.778,287.525,164.675,287.525z M227.867,454.102h-63.192c-6.896,0-12.488-5.591-12.488-12.488
				s5.592-12.488,12.488-12.488h63.192c6.896,0,12.488,5.591,12.488,12.488S234.763,454.102,227.867,454.102z M347.326,312.501
				h-109.19c-6.897,0-12.488-5.591-12.488-12.488c0-6.897,5.591-12.488,12.488-12.488h109.19c6.897,0,12.488,5.591,12.488,12.488
				C359.814,306.91,354.222,312.501,347.326,312.501z M347.326,248.078h-109.19c-6.897,0-12.488-5.591-12.488-12.488
				c0-6.897,5.591-12.488,12.488-12.488h109.19c6.897,0,12.488,5.591,12.488,12.488
				C359.814,242.487,354.222,248.078,347.326,248.078z M347.326,183.654h-109.19c-6.897,0-12.488-5.591-12.488-12.488
				c0-6.897,5.591-12.488,12.488-12.488h109.19c6.897,0,12.488,5.591,12.488,12.488
				C359.814,178.064,354.222,183.654,347.326,183.654z"/>
		</g>
	</g>
</g>
</svg>