<!DOCTYPE svg PUBLIC "-//W3C//DTD SVG 1.1//EN" "http://www.w3.org/Graphics/SVG/1.1/DTD/svg11.dtd">

<!-- Uploaded to: SVG Repo, www.svgrepo.com, Transformed by: SVG Repo Mixer Tools -->
<svg height="24px" width="24px" version="1.1" id="Layer_1" xmlns="http://www.w3.org/2000/svg" xmlnsXlink="http://www.w3.org/1999/xlink" viewBox="0 0 512 512" xmlSpace="preserve" fill="#000000">

<g id="SVGRepo_bgCarrier" stroke-width="0"/>

<g id="SVGRepo_tracerCarrier" stroke-linecap="round" stroke-linejoin="round"/>

<g id="SVGRepo_iconCarrier"> <g transform="translate(0 1)"> <polygon style="fill:#E1A074;" points="34.133,498.2 477.867,498.2 477.867,11.8 34.133,11.8 "/> <polygon style="fill:#DC4B58;" points="477.867,498.2 503.467,498.2 503.467,11.8 477.867,11.8 "/> <polygon style="fill:#FFFFFF;" points="8.533,498.2 34.133,498.2 34.133,11.8 8.533,11.8 "/> <path d="M512,506.733H0v-384c0-5.12,3.413-8.533,8.533-8.533s8.533,3.413,8.533,8.533v366.933h477.867v-76.8 c0-5.12,3.413-8.533,8.533-8.533c5.12,0,8.533,3.413,8.533,8.533V506.733z"/> <path d="M503.467,344.6c-5.12,0-8.533-3.413-8.533-8.533V20.333H17.067v34.133c0,5.12-3.413,8.533-8.533,8.533S0,59.587,0,54.467 v-51.2h512v332.8C512,341.187,508.587,344.6,503.467,344.6z"/> <path d="M17.067,88.6c0-5.12-3.413-8.533-8.533-8.533S0,83.48,0,88.6s3.413,8.533,8.533,8.533S17.067,93.72,17.067,88.6"/> <path d="M503.467,387.267c-5.12,0-8.533-3.413-8.533-8.533V370.2c0-5.12,3.413-8.533,8.533-8.533c5.12,0,8.533,3.413,8.533,8.533 v8.533C512,383.853,508.587,387.267,503.467,387.267z"/> <path d="M418.133,412.867H247.467c-5.12,0-8.533-3.413-8.533-8.533c0-5.12,3.413-8.533,8.533-8.533h170.667 c5.12,0,8.533,3.413,8.533,8.533C426.667,409.453,423.253,412.867,418.133,412.867z"/> <path d="M358.4,353.133H247.467c-5.12,0-8.533-3.413-8.533-8.533c0-5.12,3.413-8.533,8.533-8.533H358.4 c5.12,0,8.533,3.413,8.533,8.533C366.933,349.72,363.52,353.133,358.4,353.133z"/> <path d="M418.133,293.4H247.467c-5.12,0-8.533-3.413-8.533-8.533c0-5.12,3.413-8.533,8.533-8.533h170.667 c5.12,0,8.533,3.413,8.533,8.533S423.253,293.4,418.133,293.4z"/> <path d="M401.067,233.667h-153.6c-5.12,0-8.533-3.413-8.533-8.533c0-5.12,3.413-8.533,8.533-8.533h153.6 c5.12,0,8.533,3.413,8.533,8.533C409.6,230.253,406.187,233.667,401.067,233.667z"/> <path d="M366.933,173.933H247.467c-5.12,0-8.533-3.413-8.533-8.533s3.413-8.533,8.533-8.533h119.467 c5.12,0,8.533,3.413,8.533,8.533S372.053,173.933,366.933,173.933z"/> <path d="M418.133,114.2H247.467c-5.12,0-8.533-3.413-8.533-8.533s3.413-8.533,8.533-8.533h170.667c5.12,0,8.533,3.413,8.533,8.533 S423.253,114.2,418.133,114.2z"/> <path d="M136.533,242.2c-5.12,0-8.533-3.413-8.533-8.533V88.6c0-5.12,3.413-8.533,8.533-8.533s8.533,3.413,8.533,8.533v145.067 C145.067,238.787,141.653,242.2,136.533,242.2z"/> <path d="M136.533,242.2c-2.56,0-4.267-0.853-5.973-2.56c-3.413-3.413-3.413-8.533,0-11.947l59.733-59.733 c3.413-3.413,8.533-3.413,11.947,0s3.413,8.533,0,11.947l-59.733,59.733C140.8,241.347,139.093,242.2,136.533,242.2z"/> <path d="M136.533,242.2c-2.56,0-4.267-0.853-5.973-2.56l-59.733-59.733c-3.413-3.413-3.413-8.533,0-11.947s8.533-3.413,11.947,0 l59.733,59.733c3.413,3.413,3.413,8.533,0,11.947C140.8,241.347,139.093,242.2,136.533,242.2z"/> <path d="M136.533,429.933c-5.12,0-8.533-3.413-8.533-8.533V276.333c0-5.12,3.413-8.533,8.533-8.533s8.533,3.413,8.533,8.533V421.4 C145.067,426.52,141.653,429.933,136.533,429.933z"/> <path d="M76.8,344.6c-2.56,0-4.267-0.853-5.973-2.56c-3.413-3.413-3.413-8.533,0-11.947l59.733-59.733 c3.413-3.413,8.533-3.413,11.947,0s3.413,8.533,0,11.947L82.773,342.04C81.067,343.747,79.36,344.6,76.8,344.6z"/> <path d="M196.267,344.6c-2.56,0-4.267-0.853-5.973-2.56l-59.733-59.733c-3.413-3.413-3.413-8.533,0-11.947s8.533-3.413,11.947,0 l59.733,59.733c3.413,3.413,3.413,8.533,0,11.947C200.533,343.747,198.827,344.6,196.267,344.6z"/> </g> </g>

</svg>