<svg xmlns="http://www.w3.org/2000/svg" version="1.1" xmlnsXlink="http://www.w3.org/1999/xlink" xmlnsSvgjs="http://svgjs.dev/svgjs" width="100" height="100" viewBox="0 0 1000 1000"><rect width="1000" height="1000" fill="#ffffff"></rect><g transform="matrix(0.7,0,0,0.7,149.57576478948596,378.5858870635467)"><svg viewBox="0 0 396 138" data-background-color="#ffffff" preserveAspectRatio="xMidYMid meet" height="348" width="1000" xmlns="http://www.w3.org/2000/svg" xmlns:xlink="http://www.w3.org/1999/xlink"><g id="tight-bounds" transform="matrix(1,0,0,1,0.2399959190908021,-0.2186059719599882)"><svg viewBox="0 0 395.52 138.43721194392" height="138.43721194392" width="395.52"><g><svg viewBox="0 0 654.8017615931309 229.1892451732414" height="138.43721194392" width="395.52"><g transform="matrix(1,0,0,1,259.2817615931309,66.27075119316977)"><svg viewBox="0 0 395.52 96.64774278690186" height="96.64774278690186" width="395.52"><g id="textblocktransform"><svg viewBox="0 0 395.52 96.64774278690186" height="96.64774278690186" width="395.52" id="textblock"><g><svg viewBox="0 0 395.52 63.73480662983425" height="63.73480662983425" width="395.52"><g transform="matrix(1,0,0,1,0,0)"><svg width="395.52" viewBox="3.5999999046325684 -35 217.17999267578125 35" height="63.73480662983425" data-palette-color="#ffffff"><path d="M6.75 0L3.6 0 3.6-35 7-35 19.85-9.4 32.7-35 36.1-35 36.1 0 32.95 0 32.95-29.2 21.55-6.55 18.15-6.55 6.75-29.2 6.75 0ZM61.35-35L61.1-32 46.55-32 46.55-18.85 60.05-18.85 59.8-15.85 46.55-15.85 46.55-3 62.35-3 62.1 0 43.15 0 43.15-35 61.35-35ZM67.84 0L67.84-35 76.84-35Q87.34-35 90.55-26.2L90.55-26.2Q91.75-23 91.75-17.78 91.75-12.55 90.59-8.97 89.44-5.4 87.34-3.4 85.25-1.4 82.27-0.7 79.3 0 75.59 0L75.59 0 67.84 0ZM76.59-32.25L71.25-32.25 71.25-2.75 75.34-2.75Q77.94-2.75 80.34-3.2L80.34-3.2Q88.34-4.6 88.34-18.05L88.34-18.05Q88.34-25.6 84.84-29.2L84.84-29.2Q81.8-32.25 76.59-32.25L76.59-32.25ZM106.89-2.4L106.89 0 97.49 0 97.49-2.4 100.49-2.75 100.49-32.2 97.74-32.55 97.74-35 106.64-35 106.64-32.55 103.89-32.2 103.89-2.75 106.89-2.4ZM132.64-35L132.39-32 117.84-32 117.84-18.85 131.34-18.85 131.09-15.85 117.84-15.85 117.84-3 133.64-3 133.39 0 114.44 0 114.44-35 132.64-35ZM162.54 0L159.24-9.25 143.84-9.25 140.64 0 137.39 0 150.04-35 153.09-35 166.19 0 162.54 0ZM151.39-31.2L144.69-11.75 158.34-11.75 151.39-31.2ZM171.84-32.25L171.79-35 193.79-35 194.29-32.25 174.59-2.75 195.94-2.75 196.34 0 171.24 0 170.74-2.75 190.39-32.25 171.84-32.25ZM219.78-35L219.53-32 204.98-32 204.98-18.85 218.48-18.85 218.23-15.85 204.98-15.85 204.98-3 220.78-3 220.53 0 201.58 0 201.58-35 219.78-35Z" opacity="1" transform="matrix(1,0,0,1,0,0)" fill="#ffffff" class="undefined-text-0" data-fill-palette-color="primary" id="text-0"></path></svg></g></svg></g><g transform="matrix(1,0,0,1,0,78.781064839779)"><svg viewBox="0 0 232.209792 17.866677947122863" height="17.866677947122863" width="232.209792"><g transform="matrix(1,0,0,1,0,0)"><svg width="232.209792" viewBox="5.550000190734863 -37.099998474121094 610.7900390625 47" height="17.866677947122863" data-palette-color="#ffffff"><path d="M31.05-35L33.6-35 33.6-9.95Q33.6-2.55 29.85 1.33 26.1 5.2 19.4 5.2L19.4 5.2Q15.2 5.2 11.85 3.78 8.5 2.35 6.25-0.3L6.25-0.3 7.55-2.3Q11.9 2.85 19.45 2.85L19.45 2.85Q25.1 2.85 28.08-0.35 31.05-3.55 31.05-9.9L31.05-9.9 31.05-15.7Q29.45-12.3 26.4-10.6 23.35-8.9 19.2-8.9L19.2-8.9Q12.75-8.9 9.15-12.6 5.55-16.3 5.55-23.2L5.55-23.2 5.55-35 8.1-35 8.1-23.3Q8.1-17.4 11.05-14.33 14-11.25 19.4-11.25L19.4-11.25Q24.95-11.25 28-14.5 31.05-17.75 31.05-24.2L31.05-24.2 31.05-35ZM54.9 0.2Q51.2 0.2 48.22-1.5 45.25-3.2 43.55-6.23 41.85-9.25 41.85-13.05L41.85-13.05Q41.85-16.85 43.55-19.88 45.25-22.9 48.22-24.6 51.2-26.3 54.9-26.3L54.9-26.3Q58.6-26.3 61.57-24.6 64.55-22.9 66.25-19.88 67.95-16.85 67.95-13.05L67.95-13.05Q67.95-9.25 66.25-6.23 64.55-3.2 61.57-1.5 58.6 0.2 54.9 0.2L54.9 0.2ZM54.9-2.05Q57.9-2.05 60.27-3.45 62.65-4.85 64.02-7.35 65.4-9.85 65.4-13.05L65.4-13.05Q65.4-16.25 64.02-18.75 62.65-21.25 60.27-22.65 57.9-24.05 54.9-24.05L54.9-24.05Q51.9-24.05 49.52-22.65 47.15-21.25 45.77-18.75 44.4-16.25 44.4-13.05L44.4-13.05Q44.4-9.85 45.77-7.35 47.15-4.85 49.52-3.45 51.9-2.05 54.9-2.05L54.9-2.05ZM96.05-26.1L98.55-26.1 98.55 0 96.15 0 96.15-5.6Q94.85-2.85 92.3-1.33 89.75 0.2 86.3 0.2L86.3 0.2Q81.2 0.2 78.3-2.65 75.4-5.5 75.4-10.85L75.4-10.85 75.4-26.1 77.9-26.1 77.9-11.05Q77.9-6.65 80.15-4.35 82.4-2.05 86.5-2.05L86.5-2.05Q90.9-2.05 93.47-4.8 96.05-7.55 96.05-12.2L96.05-12.2 96.05-26.1ZM111.54-20.4Q112.74-23.25 115.29-24.78 117.84-26.3 121.49-26.3L121.49-26.3 121.49-23.85 120.89-23.9Q116.54-23.9 114.09-21.18 111.64-18.45 111.64-13.6L111.64-13.6 111.64 0 109.14 0 109.14-26.1 111.54-26.1 111.54-20.4ZM168.44-35L170.99-35 170.99 0 168.44 0 168.44-16.65 145.04-16.65 145.04 0 142.49 0 142.49-35 145.04-35 145.04-18.9 168.44-18.9 168.44-35ZM193.09-2.05Q195.64-2.05 197.81-2.98 199.99-3.9 201.44-5.7L201.44-5.7 202.89-4.05Q201.19-1.95 198.64-0.88 196.09 0.2 193.04 0.2L193.04 0.2Q189.14 0.2 186.06-1.5 182.99-3.2 181.26-6.2 179.54-9.2 179.54-13.05L179.54-13.05Q179.54-16.9 181.16-19.9 182.79-22.9 185.69-24.6 188.59-26.3 192.24-26.3L192.24-26.3Q195.64-26.3 198.36-24.73 201.09-23.15 202.71-20.38 204.34-17.6 204.49-14.15L204.49-14.15 182.44-9.85Q183.39-6.25 186.24-4.15 189.09-2.05 193.09-2.05L193.09-2.05ZM192.24-24.1Q189.29-24.1 186.94-22.73 184.59-21.35 183.29-18.88 181.99-16.4 181.99-13.25L181.99-13.25Q181.99-12.7 182.09-11.7L182.09-11.7 201.99-15.6Q201.64-17.95 200.34-19.9 199.04-21.85 196.94-22.98 194.84-24.1 192.24-24.1L192.24-24.1ZM232.93-26.1L235.43-26.1 235.43 0 232.98 0 232.98-6.15Q231.43-3.1 228.63-1.45 225.83 0.2 222.28 0.2L222.28 0.2Q218.63 0.2 215.68-1.5 212.73-3.2 211.06-6.2 209.38-9.2 209.38-13.05L209.38-13.05Q209.38-16.9 211.06-19.93 212.73-22.95 215.68-24.63 218.63-26.3 222.28-26.3L222.28-26.3Q225.78-26.3 228.56-24.65 231.33-23 232.93-20.05L232.93-20.05 232.93-26.1ZM222.43-2.05Q225.43-2.05 227.81-3.45 230.18-4.85 231.56-7.35 232.93-9.85 232.93-13.05L232.93-13.05Q232.93-16.25 231.56-18.75 230.18-21.25 227.81-22.65 225.43-24.05 222.43-24.05L222.43-24.05Q219.43-24.05 217.06-22.65 214.68-21.25 213.31-18.75 211.93-16.25 211.93-13.05L211.93-13.05Q211.93-9.85 213.31-7.35 214.68-4.85 217.06-3.45 219.43-2.05 222.43-2.05L222.43-2.05ZM252.78 0.2Q249.48 0.2 247.73-1.68 245.98-3.55 245.98-6.85L245.98-6.85 245.98-37.1 248.48-37.1 248.48-7.15Q248.48-4.6 249.63-3.28 250.78-1.95 253.08-1.95L253.08-1.95Q254.38-1.95 255.58-2.45L255.58-2.45 255.78-0.35Q254.38 0.2 252.78 0.2L252.78 0.2ZM271.98-3.4L273.03-1.65Q272.08-0.75 270.65-0.28 269.23 0.2 267.68 0.2L267.68 0.2Q264.28 0.2 262.43-1.68 260.58-3.55 260.58-6.9L260.58-6.9 260.58-31.8 263.08-31.8 263.08-26.1 271.38-26.1 271.38-23.95 263.08-23.95 263.08-7.15Q263.08-4.6 264.3-3.28 265.53-1.95 267.93-1.95L267.93-1.95Q270.38-1.95 271.98-3.4L271.98-3.4ZM292.73-26.3Q297.63-26.3 300.48-23.45 303.33-20.6 303.33-15.25L303.33-15.25 303.33 0 300.83 0 300.83-15.05Q300.83-19.45 298.6-21.75 296.38-24.05 292.38-24.05L292.38-24.05Q287.78-24.05 285.13-21.3 282.48-18.55 282.48-13.9L282.48-13.9 282.48 0 279.98 0 279.98-37.1 282.48-37.1 282.48-20.65Q283.83-23.35 286.48-24.83 289.13-26.3 292.73-26.3L292.73-26.3ZM313.32-4.05Q314.22-4.05 314.82-3.43 315.42-2.8 315.42-1.95L315.42-1.95Q315.42-1.45 315.3-0.9 315.17-0.35 314.97 0.35L314.97 0.35 313.02 7.15 311.22 7.15 312.87 0.1Q312.12-0.1 311.67-0.63 311.22-1.15 311.22-1.95L311.22-1.95Q311.22-2.85 311.82-3.45 312.42-4.05 313.32-4.05L313.32-4.05ZM352.12 0.25Q346.97 0.25 342.82-2.08 338.67-4.4 336.29-8.45 333.92-12.5 333.92-17.5L333.92-17.5Q333.92-22.5 336.29-26.55 338.67-30.6 342.82-32.93 346.97-35.25 352.12-35.25L352.12-35.25Q357.27-35.25 361.42-32.95 365.57-30.65 367.94-26.6 370.32-22.55 370.32-17.5L370.32-17.5Q370.32-12.45 367.94-8.4 365.57-4.35 361.42-2.05 357.27 0.25 352.12 0.25L352.12 0.25ZM352.12-2.1Q356.52-2.1 360.07-4.1 363.62-6.1 365.67-9.63 367.72-13.15 367.72-17.5L367.72-17.5Q367.72-21.85 365.67-25.38 363.62-28.9 360.07-30.9 356.52-32.9 352.12-32.9L352.12-32.9Q347.72-32.9 344.14-30.9 340.57-28.9 338.52-25.38 336.47-21.85 336.47-17.5L336.47-17.5Q336.47-13.15 338.52-9.63 340.57-6.1 344.14-4.1 347.72-2.1 352.12-2.1L352.12-2.1ZM398.72-26.1L401.22-26.1 401.22 0 398.82 0 398.82-5.6Q397.52-2.85 394.97-1.33 392.42 0.2 388.97 0.2L388.97 0.2Q383.87 0.2 380.97-2.65 378.07-5.5 378.07-10.85L378.07-10.85 378.07-26.1 380.57-26.1 380.57-11.05Q380.57-6.65 382.82-4.35 385.07-2.05 389.17-2.05L389.17-2.05Q393.57-2.05 396.14-4.8 398.72-7.55 398.72-12.2L398.72-12.2 398.72-26.1ZM414.21-20.4Q415.41-23.25 417.96-24.78 420.51-26.3 424.16-26.3L424.16-26.3 424.16-23.85 423.56-23.9Q419.21-23.9 416.76-21.18 414.31-18.45 414.31-13.6L414.31-13.6 414.31 0 411.81 0 411.81-26.1 414.21-26.1 414.21-20.4ZM457.71-35Q464.31-35 468.06-31.88 471.81-28.75 471.81-23.2L471.81-23.2Q471.81-17.7 468.06-14.58 464.31-11.45 457.71-11.45L457.71-11.45 447.71-11.45 447.71 0 445.16 0 445.16-35 457.71-35ZM457.71-13.75Q463.31-13.75 466.26-16.2 469.21-18.65 469.21-23.2L469.21-23.2Q469.21-27.75 466.26-30.23 463.31-32.7 457.71-32.7L457.71-32.7 447.71-32.7 447.71-13.75 457.71-13.75ZM481.21-20.4Q482.41-23.25 484.96-24.78 487.51-26.3 491.16-26.3L491.16-26.3 491.16-23.85 490.56-23.9Q486.21-23.9 483.76-21.18 481.31-18.45 481.31-13.6L481.31-13.6 481.31 0 478.81 0 478.81-26.1 481.21-26.1 481.21-20.4ZM498.05 0L498.05-26.1 500.55-26.1 500.55 0 498.05 0ZM499.3-32.45Q498.45-32.45 497.85-33.02 497.25-33.6 497.25-34.45L497.25-34.45Q497.25-35.3 497.85-35.9 498.45-36.5 499.3-36.5L499.3-36.5Q500.15-36.5 500.75-35.93 501.35-35.35 501.35-34.5L501.35-34.5Q501.35-33.65 500.75-33.05 500.15-32.45 499.3-32.45L499.3-32.45ZM521.3 0.2Q517.6 0.2 514.63-1.5 511.65-3.2 509.95-6.23 508.25-9.25 508.25-13.05L508.25-13.05Q508.25-16.85 509.95-19.88 511.65-22.9 514.63-24.6 517.6-26.3 521.3-26.3L521.3-26.3Q525-26.3 527.98-24.6 530.95-22.9 532.65-19.88 534.35-16.85 534.35-13.05L534.35-13.05Q534.35-9.25 532.65-6.23 530.95-3.2 527.98-1.5 525 0.2 521.3 0.2L521.3 0.2ZM521.3-2.05Q524.3-2.05 526.68-3.45 529.05-4.85 530.43-7.35 531.8-9.85 531.8-13.05L531.8-13.05Q531.8-16.25 530.43-18.75 529.05-21.25 526.68-22.65 524.3-24.05 521.3-24.05L521.3-24.05Q518.3-24.05 515.93-22.65 513.55-21.25 512.18-18.75 510.8-16.25 510.8-13.05L510.8-13.05Q510.8-9.85 512.18-7.35 513.55-4.85 515.93-3.45 518.3-2.05 521.3-2.05L521.3-2.05ZM544.5-20.4Q545.7-23.25 548.25-24.78 550.8-26.3 554.45-26.3L554.45-26.3 554.45-23.85 553.85-23.9Q549.5-23.9 547.05-21.18 544.6-18.45 544.6-13.6L544.6-13.6 544.6 0 542.1 0 542.1-26.1 544.5-26.1 544.5-20.4ZM561.35 0L561.35-26.1 563.85-26.1 563.85 0 561.35 0ZM562.6-32.45Q561.75-32.45 561.15-33.02 560.55-33.6 560.55-34.45L560.55-34.45Q560.55-35.3 561.15-35.9 561.75-36.5 562.6-36.5L562.6-36.5Q563.45-36.5 564.05-35.93 564.65-35.35 564.65-34.5L564.65-34.5Q564.65-33.65 564.05-33.05 563.45-32.45 562.6-32.45L562.6-32.45ZM585.49-3.4L586.54-1.65Q585.59-0.75 584.17-0.28 582.74 0.2 581.19 0.2L581.19 0.2Q577.79 0.2 575.94-1.68 574.09-3.55 574.09-6.9L574.09-6.9 574.09-31.8 576.59-31.8 576.59-26.1 584.89-26.1 584.89-23.95 576.59-23.95 576.59-7.15Q576.59-4.6 577.82-3.28 579.04-1.95 581.44-1.95L581.44-1.95Q583.89-1.95 585.49-3.4L585.49-3.4ZM613.84-26.1L616.34-26.1 616.34-2.8Q616.34 3.7 613.44 6.8 610.54 9.9 604.69 9.9L604.69 9.9Q601.34 9.9 598.39 8.8 595.44 7.7 593.64 5.75L593.64 5.75 594.99 3.85Q596.74 5.65 599.24 6.65 601.74 7.65 604.59 7.65L604.59 7.65Q609.34 7.65 611.59 5.18 613.84 2.7 613.84-2.5L613.84-2.5 613.84-6.5Q612.49-3.9 609.96-2.43 607.44-0.95 604.09-0.95L604.09-0.95Q598.99-0.95 596.09-3.8 593.19-6.65 593.19-12L593.19-12 593.19-26.1 595.69-26.1 595.69-12.2Q595.69-7.8 597.94-5.5 600.19-3.2 604.29-3.2L604.29-3.2Q608.69-3.2 611.26-5.95 613.84-8.7 613.84-13.35L613.84-13.35 613.84-26.1Z" opacity="1" transform="matrix(1,0,0,1,0,0)" fill="#ffffff" class="undefined-text-1" data-fill-palette-color="secondary" id="text-1"></path></svg></g></svg></g></svg></g></svg></g><g><svg viewBox="0 0 229.1892451732414 229.1892451732414" height="229.1892451732414" width="229.1892451732414"><g><svg></svg></g><g id="icon-0"><svg viewBox="0 0 229.1892451732414 229.1892451732414" height="229.1892451732414" width="229.1892451732414"><g><path d="M0 114.595c0-63.289 51.306-114.595 114.595-114.595 63.289 0 114.595 51.306 114.594 114.595 0 63.289-51.306 114.595-114.594 114.594-63.289 0-114.595-51.306-114.595-114.594zM114.595 223.442c60.115 0 108.847-48.732 108.847-108.847 0-60.115-48.732-108.847-108.847-108.847-60.115 0-108.847 48.732-108.847 108.847 0 60.115 48.732 108.847 108.847 108.847z" data-fill-palette-color="accent" fill="#ff4136" stroke="transparent"></path></g><g transform="matrix(1,0,0,1,46.57394665829993,60.83858020051189)"><svg viewBox="0 0 136.04135185664154 107.51208477221762" height="107.51208477221762" width="136.04135185664154"><g><svg xmlns="http://www.w3.org/2000/svg" xmlns:xlink="http://www.w3.org/1999/xlink" version="1.1" x="0" y="0" viewBox="2.822999954223633 12.981998443603516 94.35400390625 74.56700134277344" enable-background="new 0 0 100 100" xml:space="preserve" height="107.51208477221762" width="136.04135185664154" class="icon-s-0" data-fill-palette-color="accent" id="s-0"><path fill="#ff4136" d="M49.997 87.549l-36.819-28.54C6.609 54.122 2.823 46.657 2.823 38.552c0-14.1 11.472-25.57 25.573-25.57 8.85 0 16.964 4.573 21.601 11.92 4.638-7.347 12.757-11.92 21.614-11.92 14.098 0 25.566 11.471 25.566 25.57 0 8.111-3.786 15.576-10.388 20.481L49.997 87.549zM28.396 16.981c-11.896 0-21.573 9.676-21.573 21.57 0 6.828 3.198 13.123 8.773 17.271l34.4 26.665 34.375-26.642c5.608-4.167 8.806-10.462 8.806-17.295 0-11.894-9.675-21.57-21.566-21.57-8.586 0-16.35 5.096-19.78 12.983l-1.834 4.216-1.834-4.216C44.733 22.078 36.974 16.981 28.396 16.981z" data-fill-palette-color="accent"></path><polygon points="41.217,50.026 40.455,52.201 27.673,52.201 27.673,48.643 37.931,48.643 40.816,40.402 48.315,57.197   56.207,32.901 62.359,49.532 72.329,49.532 72.329,53.09 59.881,53.09 56.426,43.747 48.84,67.1 " fill="#ff4136" data-fill-palette-color="accent"></polygon></svg></g></svg></g></svg></g></svg></g></svg></g><defs></defs></svg><rect width="395.52" height="138.43721194392" fill="none" stroke="none" visibility="hidden"></rect></g></svg></g></svg>