<?xml version="1.0" encoding="UTF-8"?>
<svg width="274px" height="249px" viewBox="0 0 274 249" version="1.1" xmlns="http://www.w3.org/2000/svg" xmlns:xlink="http://www.w3.org/1999/xlink">
    <!-- Generator: Sketch 56.3 (81716) - https://sketch.com -->
    <title>sol_doc_03</title>
    <desc>Created with Sketch.</desc>
    <defs>
        <path d="M94.75,0.749 C45.136,0.749 4.362,39.193 0.579,87.853 L0.579,87.853 L22.678,87.853 C26.391,51.352 57.287,22.77 94.75,22.77 L94.75,22.77 C132.214,22.77 163.109,51.352 166.821,87.853 L166.821,87.853 L188.921,87.853 C185.138,39.193 144.363,0.749 94.75,0.749 Z" id="path-1"></path>
        <linearGradient x1="7.61911841e-05%" y1="49.9995562%" x2="100.000163%" y2="49.9995562%" id="linearGradient-3">
            <stop stop-color="#FF8238" offset="0%"></stop>
            <stop stop-color="#FFBF00" offset="100%"></stop>
        </linearGradient>
        <path d="M6.376,0.252 C3.393,0.252 0.954,2.693 0.954,5.676 L0.954,5.676 L0.954,153.273 C0.954,156.256 3.393,158.696 6.377,158.696 L6.377,158.696 L187.124,158.696 C190.107,158.696 192.547,156.256 192.547,153.274 L192.547,153.274 L192.547,5.676 C192.547,2.693 190.107,0.252 187.124,0.252 L187.124,0.252 L6.376,0.252 Z" id="path-4"></path>
        <linearGradient x1="-0.000311337053%" y1="50.0003076%" x2="100.000024%" y2="50.0003076%" id="linearGradient-6">
            <stop stop-color="#8990F9" offset="0%"></stop>
            <stop stop-color="#4F44A3" offset="100%"></stop>
        </linearGradient>
        <path d="M7.334,0.252 C3.825,0.252 0.954,1.688 0.954,3.442 L0.954,3.442 L0.954,15.866 L192.547,15.866 L192.547,3.442 C192.547,1.688 189.675,0.252 186.167,0.252 L186.167,0.252 L7.334,0.252 Z" id="path-7"></path>
        <linearGradient x1="-0.000311337053%" y1="50.0022845%" x2="100.000024%" y2="50.0022845%" id="linearGradient-9">
            <stop stop-color="#FF8238" offset="0%"></stop>
            <stop stop-color="#FFBF00" offset="100%"></stop>
        </linearGradient>
        <path d="M0.954,0.15 L0.954,12.574 C0.954,14.328 3.825,15.764 7.334,15.764 L7.334,15.764 L186.167,15.764 C189.675,15.764 192.547,14.328 192.547,12.574 L192.547,12.574 L192.547,0.15 L0.954,0.15 Z" id="path-10"></path>
        <linearGradient x1="100.000022%" y1="49.9980626%" x2="-0.000313372618%" y2="49.9980626%" id="linearGradient-12">
            <stop stop-color="#8990F9" offset="0%"></stop>
            <stop stop-color="#4F44A3" offset="100%"></stop>
        </linearGradient>
        <path d="M0.059,19.093 C0.059,25.733 3.545,31.547 8.776,34.845 L8.776,34.845 L8.776,61.129 C8.776,66.579 13.236,71.038 18.686,71.038 L18.686,71.038 C24.137,71.038 28.596,66.579 28.596,61.129 L28.596,61.129 L28.596,34.84 C33.823,31.542 37.307,25.731 37.307,19.093 L37.307,19.093 C37.307,8.807 28.969,0.469 18.683,0.469 L18.683,0.469 C8.398,0.469 0.059,8.807 0.059,19.093" id="path-13"></path>
        <linearGradient x1="-0.000947164948%" y1="49.9998729%" x2="100.000438%" y2="49.9998729%" id="linearGradient-15">
            <stop stop-color="#0E1123" offset="0%"></stop>
            <stop stop-color="#4F44A3" offset="100%"></stop>
        </linearGradient>
        <polygon id="path-16" points="0 249 273.168 249 273.168 0.748 0 0.748"></polygon>
        <path d="M12.198,2.436 L12.198,5.44 C12.198,6.303 11.786,6.402 11.28,6.402 L11.28,6.402 C10.772,6.402 10.362,6.303 10.362,5.44 L10.362,5.44 L10.362,2.415 C5.056,1.776 4.758,1.754 0.165,0.688 L0.165,0.688 L0.165,11.819 C0.165,12.816 0.552,13.625 1.137,13.625 L1.137,13.625 L21.196,13.625 C21.781,13.625 22.168,12.816 22.168,11.819 L22.168,11.819 L22.168,0.651 C22.168,0.651 18.537,1.776 12.198,2.436" id="path-18"></path>
        <linearGradient x1="-9.99863655e-05%" y1="49.9981216%" x2="99.9989301%" y2="49.9981216%" id="linearGradient-20">
            <stop stop-color="#0E1123" offset="0%"></stop>
            <stop stop-color="#4F44A3" offset="100%"></stop>
        </linearGradient>
        <path d="M1.137,0.86 C0.552,0.86 0.165,1.668 0.165,2.665 L0.165,2.665 L0.165,8.082 C0.165,8.082 4.358,9.619 10.362,9.774 L10.362,9.774 L10.362,9.044 C10.362,8.181 10.772,8.082 11.28,8.082 L11.28,8.082 C11.786,8.082 12.198,8.181 12.198,9.044 L12.198,9.044 L12.198,9.776 C15.245,9.706 18.656,9.25 22.168,8.082 L22.168,8.082 L22.168,2.665 C22.168,1.668 21.781,0.86 21.196,0.86 L21.196,0.86 L1.137,0.86 Z" id="path-21"></path>
        <linearGradient x1="-9.99863655e-05%" y1="50.0015915%" x2="99.9989301%" y2="50.0015915%" id="linearGradient-23">
            <stop stop-color="#8990F9" offset="0%"></stop>
            <stop stop-color="#4F44A3" offset="100%"></stop>
        </linearGradient>
        <path d="M36.958,1.291 C33.05,2.096 29.76,4.719 27.955,8.277 L27.955,8.277 C27.955,8.277 22.198,22.85 19.533,24.871 L19.533,24.871 C16.867,26.893 0.521,30.33 0.521,30.33 L0.521,30.33 L0.521,34.223 C0.521,34.223 19.178,36.518 24.153,33.064 L24.153,33.064 C29.128,29.611 29.662,25.87 29.662,25.87 L29.662,25.87 L29.662,42.431 L50.243,42.431 L49.74,16.752 L50.451,52.702 C50.451,52.702 52.939,52.88 54.893,52.702 L54.893,52.702 C61.53,37.452 58.636,20.055 56.909,12.722 L56.909,12.722 C55.812,8.063 52.709,4.052 48.329,2.121 L48.329,2.121 C46.552,1.338 44.438,0.816 41.96,0.816 L41.96,0.816 C40.032,0.816 38.376,0.998 36.958,1.291" id="path-24"></path>
        <linearGradient x1="35.4308366%" y1="4.28015311%" x2="70.346205%" y2="115.617023%" id="linearGradient-26">
            <stop stop-color="#FF8238" offset="0%"></stop>
            <stop stop-color="#FFBF00" offset="100%"></stop>
        </linearGradient>
        <polygon id="path-27" points="2.717 0.045 0.442 38.975 11.238 38.975 8.741 0.036"></polygon>
        <linearGradient x1="-0.000712300852%" y1="50.0000804%" x2="100.001845%" y2="50.0000804%" id="linearGradient-29">
            <stop stop-color="#0E1123" offset="0%"></stop>
            <stop stop-color="#4F44A3" offset="100%"></stop>
        </linearGradient>
        <polygon id="path-30" points="0.407375132 0.3521 14.5421072 0.3521 14.5421072 8 0.407375132 8"></polygon>
        <polygon id="path-32" points="0.840075132 0.3521 14.9748072 0.3521 14.9748072 8 0.840075132 8"></polygon>
        <path d="M0.096,0.975 C0.096,0.975 -0.915,6.795 4.905,35.402 L4.905,35.402 C0.193,50.309 7.738,75.254 7.738,75.254 L7.738,75.254 L13.238,75.254 L16.983,0.975 L0.096,0.975 Z" id="path-34"></path>
        <linearGradient x1="49.9997682%" y1="0.000275313346%" x2="49.9997682%" y2="100.000295%" id="linearGradient-36">
            <stop stop-color="#FF8238" offset="0%"></stop>
            <stop stop-color="#FFBF00" offset="100%"></stop>
        </linearGradient>
        <path d="M0.08,0.045 L2.034,47.29 L8.508,44.518 C8.508,44.518 5.592,35.649 5.869,23.328 L5.869,23.328 C4.879,14.419 9.933,19.112 3.74,1.957 L3.74,1.957 C1.455,0.054 0.105,0.045 0.08,0.045 L0.08,0.045 C0.08,0.045 0.08,0.045 0.08,0.045" id="path-37"></path>
        <linearGradient x1="50.0041042%" y1="100.000276%" x2="50.0041042%" y2="-0.00125537094%" id="linearGradient-39">
            <stop stop-color="#8990F9" offset="0%"></stop>
            <stop stop-color="#4F44A3" offset="100%"></stop>
        </linearGradient>
        <path d="M3.804,0.975 C3.804,0.975 -3.402,6.795 2.418,35.402 L2.418,35.402 C-2.293,50.309 1.864,75.254 1.864,75.254 L1.864,75.254 L6.801,75.254 L20.69,0.975 L3.804,0.975 Z" id="path-40"></path>
        <linearGradient x1="50.0014386%" y1="100.000295%" x2="50.0014386%" y2="0.000275313346%" id="linearGradient-42">
            <stop stop-color="#FF8238" offset="0%"></stop>
            <stop stop-color="#FFBF00" offset="100%"></stop>
        </linearGradient>
        <path d="M6.745,6.511 C4.943,9.42 4.319,16.041 4.146,21.935 L4.146,21.935 C3.908,30.029 0,51.29 0,51.29 L0,51.29 L16.305,51.29 L16.711,5.004 L14.717,0.04 C14.717,0.04 8.635,3.459 6.745,6.511" id="path-43"></path>
        <linearGradient x1="50.0013937%" y1="100.000255%" x2="50.0013937%" y2="0.00148292683%" id="linearGradient-45">
            <stop stop-color="#8990F9" offset="0%"></stop>
            <stop stop-color="#4F44A3" offset="100%"></stop>
        </linearGradient>
    </defs>
    <g id="Page-1" stroke="none" stroke-width="1" fill="none" fill-rule="evenodd">
        <g id="Web_Illustrations" transform="translate(-1154.000000, -1516.000000)">
            <g id="sol_doc_03" transform="translate(1154.000000, 1515.000000)">
                <g id="Group-3" transform="translate(33.000000, 0.252000)">
                    <mask id="mask-2" fill="white">
                        <use xlink:href="#path-1"></use>
                    </mask>
                    <g id="Clip-2"></g>
                    <path d="M94.75,0.749 C45.136,0.749 4.362,39.193 0.579,87.853 L0.579,87.853 L22.678,87.853 C26.391,51.352 57.287,22.77 94.75,22.77 L94.75,22.77 C132.214,22.77 163.109,51.352 166.821,87.853 L166.821,87.853 L188.921,87.853 C185.138,39.193 144.363,0.749 94.75,0.749 Z" id="Fill-1" fill="url(#linearGradient-3)" mask="url(#mask-2)"></path>
                </g>
                <g id="Group-6" transform="translate(31.000000, 85.252000)">
                    <mask id="mask-5" fill="white">
                        <use xlink:href="#path-4"></use>
                    </mask>
                    <g id="Clip-5"></g>
                    <path d="M6.376,0.252 C3.393,0.252 0.954,2.693 0.954,5.676 L0.954,5.676 L0.954,153.273 C0.954,156.256 3.393,158.696 6.377,158.696 L6.377,158.696 L187.124,158.696 C190.107,158.696 192.547,156.256 192.547,153.274 L192.547,153.274 L192.547,5.676 C192.547,2.693 190.107,0.252 187.124,0.252 L187.124,0.252 L6.376,0.252 Z" id="Fill-4" fill="url(#linearGradient-6)" mask="url(#mask-5)"></path>
                </g>
                <g id="Group-9" transform="translate(31.000000, 85.252000)">
                    <mask id="mask-8" fill="white">
                        <use xlink:href="#path-7"></use>
                    </mask>
                    <g id="Clip-8"></g>
                    <path d="M7.334,0.252 C3.825,0.252 0.954,1.688 0.954,3.442 L0.954,3.442 L0.954,15.866 L192.547,15.866 L192.547,3.442 C192.547,1.688 189.675,0.252 186.167,0.252 L186.167,0.252 L7.334,0.252 Z" id="Fill-7" fill="url(#linearGradient-9)" mask="url(#mask-8)"></path>
                </g>
                <g id="Group-12" transform="translate(31.000000, 229.252000)">
                    <mask id="mask-11" fill="white">
                        <use xlink:href="#path-10"></use>
                    </mask>
                    <g id="Clip-11"></g>
                    <path d="M0.954,0.15 L0.954,12.574 C0.954,14.328 3.825,15.764 7.334,15.764 L7.334,15.764 L186.167,15.764 C189.675,15.764 192.547,14.328 192.547,12.574 L192.547,12.574 L192.547,0.15 L0.954,0.15 Z" id="Fill-10" fill="url(#linearGradient-12)" mask="url(#mask-11)"></path>
                </g>
                <g id="Group-15" transform="translate(112.000000, 135.252000)">
                    <mask id="mask-14" fill="white">
                        <use xlink:href="#path-13"></use>
                    </mask>
                    <g id="Clip-14"></g>
                    <path d="M0.059,19.093 C0.059,25.733 3.545,31.547 8.776,34.845 L8.776,34.845 L8.776,61.129 C8.776,66.579 13.236,71.038 18.686,71.038 L18.686,71.038 C24.137,71.038 28.596,66.579 28.596,61.129 L28.596,61.129 L28.596,34.84 C33.823,31.542 37.307,25.731 37.307,19.093 L37.307,19.093 C37.307,8.807 28.969,0.469 18.683,0.469 L18.683,0.469 C8.398,0.469 0.059,8.807 0.059,19.093" id="Fill-13" fill="url(#linearGradient-15)" mask="url(#mask-14)"></path>
                </g>
                <g id="Group-32" transform="translate(0.000000, 0.252000)">
                    <path d="M237.1336,243.9189 C237.1336,243.9189 235.0686,245.8349 230.3596,247.0339 C229.3226,247.2979 228.2056,246.9449 228.2056,248.6549 L233.9196,248.6549 L238.6716,247.8339 L238.6716,248.6549 L241.2386,248.6549 C241.2386,248.6549 241.9536,244.4569 240.4546,243.9189 L237.1336,243.9189 Z" id="Fill-16" fill="#070B3B"></path>
                    <path d="M237.4228,240.9035 L237.1338,243.9185 C238.0708,244.5685 239.2998,244.6095 240.2778,244.0245 L240.4548,243.9185 L241.5208,240.9035 L237.4228,240.9035 Z" id="Fill-18" fill="#FCA372"></path>
                    <path d="M259.9728,243.9189 C259.9728,243.9189 257.9078,245.8349 253.1988,247.0339 C252.1618,247.2979 251.0438,246.9449 251.0438,248.6549 L256.7588,248.6549 L261.5108,247.8339 L261.5108,248.6549 L264.0778,248.6549 C264.0778,248.6549 264.7928,244.4569 263.2938,243.9189 L259.9728,243.9189 Z" id="Fill-20" fill="#070B3B"></path>
                    <path d="M260.2618,240.9035 L259.9728,243.9185 C260.9098,244.5685 262.1388,244.6095 263.1168,244.0245 L263.2938,243.9185 L264.3598,240.9035 L260.2618,240.9035 Z" id="Fill-22" fill="#FCA372"></path>
                    <polygon id="Fill-24" fill="#232359" points="246.2359 165.4314 239.6619 165.4314 237.3519 241.6244 241.7939 241.6244 254.8449 179.6114"></polygon>
                    <polygon id="Fill-26" fill="#454387" points="244.1036 165.4314 259.4696 241.6244 264.3596 241.6244 262.3546 165.4314"></polygon>
                    <path d="M257.454,182.1842 L258.927,182.0802 C258.927,182.0742 258.872,181.0382 259.612,180.2852 C260.183,179.7042 261.099,179.4092 262.337,179.4092 C263.692,179.4092 264.709,179.7092 265.277,180.2762 C265.836,180.8342 265.816,181.4892 265.815,181.5162 L267.29,181.6002 C267.299,181.4722 267.347,180.3222 266.373,179.3252 C265.509,178.4402 264.151,177.9912 262.337,177.9912 C260.664,177.9912 259.379,178.4422 258.519,179.3312 C257.342,180.5462 257.448,182.1182 257.454,182.1842" id="Fill-28" fill="#070B3B"></path>
                    <mask id="mask-17" fill="white">
                        <use xlink:href="#path-16"></use>
                    </mask>
                    <g id="Clip-31"></g>
                    <polygon id="Fill-30" fill="#070B3B" mask="url(#mask-17)" points="251.165 198.053 273.168 198.053 273.168 183.896 251.165 183.896"></polygon>
                </g>
                <g id="Group-35" transform="translate(251.000000, 188.252000)">
                    <mask id="mask-19" fill="white">
                        <use xlink:href="#path-18"></use>
                    </mask>
                    <g id="Clip-34"></g>
                    <path d="M12.198,2.436 L12.198,5.44 C12.198,6.303 11.786,6.402 11.28,6.402 L11.28,6.402 C10.772,6.402 10.362,6.303 10.362,5.44 L10.362,5.44 L10.362,2.415 C5.056,1.776 4.758,1.754 0.165,0.688 L0.165,0.688 L0.165,11.819 C0.165,12.816 0.552,13.625 1.137,13.625 L1.137,13.625 L21.196,13.625 C21.781,13.625 22.168,12.816 22.168,11.819 L22.168,11.819 L22.168,0.651 C22.168,0.651 18.537,1.776 12.198,2.436" id="Fill-33" fill="url(#linearGradient-20)" mask="url(#mask-19)"></path>
                </g>
                <path d="M255.6007,189.8954 C256.6227,191.8904 257.6827,193.8424 259.0147,195.6634 C260.6127,197.8484 262.4057,199.9044 264.2857,201.8764 L252.1367,201.8764 C251.5517,201.8764 251.1647,201.0684 251.1647,200.0704 L251.1647,188.9404 C253.2297,189.4194 254.4267,189.6874 255.6007,189.8954" id="Fill-36" fill="#4E4795"></path>
                <g id="Group-40" transform="translate(251.000000, 180.252000)">
                    <mask id="mask-22" fill="white">
                        <use xlink:href="#path-21"></use>
                    </mask>
                    <g id="Clip-39"></g>
                    <path d="M1.137,0.86 C0.552,0.86 0.165,1.668 0.165,2.665 L0.165,2.665 L0.165,8.082 C0.165,8.082 4.358,9.619 10.362,9.774 L10.362,9.774 L10.362,9.044 C10.362,8.181 10.772,8.082 11.28,8.082 L11.28,8.082 C11.786,8.082 12.198,8.181 12.198,9.044 L12.198,9.044 L12.198,9.776 C15.245,9.706 18.656,9.25 22.168,8.082 L22.168,8.082 L22.168,2.665 C22.168,1.668 21.781,0.86 21.196,0.86 L21.196,0.86 L1.137,0.86 Z" id="Fill-38" fill="url(#linearGradient-23)" mask="url(#mask-22)"></path>
                </g>
                <g id="Group-59" transform="translate(199.000000, 103.252000)">
                    <path d="M62.4729,87.9275 C62.3159,87.9275 62.1889,88.0555 62.1889,88.2115 L62.1889,89.1415 C62.1889,89.2985 62.3159,89.4265 62.4729,89.4265 L64.0649,89.4265 C64.2219,89.4265 64.3489,89.2985 64.3489,89.1415 L64.3489,88.2115 C64.3489,88.0555 64.2219,87.9275 64.0649,87.9275 L62.4729,87.9275 Z M62.0749,89.1415 L62.0749,88.2115 C62.0749,87.9925 62.2529,87.8135 62.4729,87.8135 L64.0649,87.8135 C64.2839,87.8135 64.4629,87.9925 64.4629,88.2115 L64.4629,89.1415 C64.4629,89.3615 64.2839,89.5395 64.0649,89.5395 L62.4729,89.5395 C62.2529,89.5395 62.0749,89.3615 62.0749,89.1415 L62.0749,89.1415 Z" id="Fill-41" fill="#FFFFFF"></path>
                    <path d="M63.1664,88.5712 C63.1664,88.6242 63.2124,88.6672 63.2684,88.6672 C63.3254,88.6672 63.3714,88.6242 63.3714,88.5712 L63.3714,87.2732 C63.3714,87.2202 63.3254,87.1772 63.2684,87.1772 C63.2124,87.1772 63.1664,87.2202 63.1664,87.2732 L63.1664,88.5712 Z" id="Fill-43" fill="#FFFFFF"></path>
                    <path d="M9.0373,51.1033 C8.8093,51.2843 7.9693,51.8333 5.9323,52.0023 C4.1043,52.1553 0.2093,51.3583 0.9523,53.1643 C2.7033,54.1093 4.6453,55.4293 4.6453,55.4293 C5.7613,55.8973 7.7383,55.4113 8.9123,54.8753 L12.3233,52.7933 C12.3233,52.7933 12.6163,50.8753 12.6473,50.7873 L11.8653,50.4693 C10.9563,50.8313 10.0003,51.0363 9.0373,51.1033" id="Fill-45" fill="#FCA372"></path>
                    <path d="M8.4115,51.908 C8.4115,51.908 8.3505,51.997 8.2085,52.127 C8.4515,52.225 8.6855,52.335 8.9145,52.451 C9.8725,52.477 10.8285,52.533 11.7855,52.569 C11.7265,52.017 11.6455,51.241 11.6495,51.185 L5.4285,49.704 C5.4285,49.704 4.9255,50.36 6.0625,51.065 C7.2005,51.77 8.4115,51.908 8.4115,51.908" id="Fill-47" fill="#FCA372"></path>
                    <path d="M62.3181,71.2989 L60.2511,75.8449 C60.2511,75.8449 60.6951,78.3439 61.6101,79.3179 C61.8851,79.6119 62.3211,79.6909 62.6931,79.5369 C63.5541,79.1799 65.5421,78.3199 65.8711,77.8479 C66.0331,77.6149 66.0571,77.3099 65.9721,77.0379 L65.3701,75.0359 L65.2951,70.3679 L62.3181,71.2989 Z" id="Fill-49" fill="#FCA372"></path>
                    <polygon id="Fill-51" fill="#FB886B" points="50.1434 16.6363 50.0744 22.7283 55.5014 22.4363 55.8444 12.9923"></polygon>
                    <path d="M49.2385,17.1995 C48.4805,17.1785 47.7775,17.0655 47.4095,16.7655 C45.2225,13.5845 47.7135,5.0095 47.7135,5.0095 L51.2095,3.5375 L55.6515,6.3085 L55.9045,12.0545 C55.9715,13.5885 55.2355,15.0605 53.9215,16.0185 C52.5145,16.8075 50.8895,17.2455 49.2385,17.1995" id="Fill-53" fill="#FCA372"></path>
                    <path d="M54.4187,9.565 C54.1747,8.6 54.8347,6.372 53.8527,6.533 C53.1357,6.651 50.6787,6.752 49.8517,6.752 C47.8817,6.752 44.3687,5.981 44.3687,2.983 C44.3687,1.484 45.2897,0.724 46.2107,0.34 C47.1147,-0.037 48.1357,1.047 49.0597,1.37 C51.2297,2.129 55.7077,2.743 56.8537,2.505 C58.1547,2.235 59.5167,3.563 59.6167,4.357 C59.8367,6.095 58.6737,8.744 57.8127,10.418 C57.3137,11.387 56.6477,12.256 55.8447,12.993 L54.4187,9.565 Z" id="Fill-55" fill="#070B3B"></path>
                    <path d="M56.9494,9.7819 C56.5104,9.3939 55.6884,9.4679 55.1134,9.9459 C54.5394,10.4239 54.4294,11.1259 54.8684,11.5139 C55.3074,11.9019 56.1294,11.8279 56.7034,11.3499 C57.2784,10.8719 57.3884,10.1699 56.9494,9.7819" id="Fill-57" fill="#FCA372"></path>
                </g>
                <g id="Group-62" transform="translate(210.000000, 123.252000)">
                    <mask id="mask-25" fill="white">
                        <use xlink:href="#path-24"></use>
                    </mask>
                    <g id="Clip-61"></g>
                    <path d="M36.958,1.291 C33.05,2.096 29.76,4.719 27.955,8.277 L27.955,8.277 C27.955,8.277 22.198,22.85 19.533,24.871 L19.533,24.871 C16.867,26.893 0.521,30.33 0.521,30.33 L0.521,30.33 L0.521,34.223 C0.521,34.223 19.178,36.518 24.153,33.064 L24.153,33.064 C29.128,29.611 29.662,25.87 29.662,25.87 L29.662,25.87 L29.662,42.431 L50.243,42.431 L49.74,16.752 L50.451,52.702 C50.451,52.702 52.939,52.88 54.893,52.702 L54.893,52.702 C61.53,37.452 58.636,20.055 56.909,12.722 L56.909,12.722 C55.812,8.063 52.709,4.052 48.329,2.121 L48.329,2.121 C46.552,1.338 44.438,0.816 41.96,0.816 L41.96,0.816 C40.032,0.816 38.376,0.998 36.958,1.291" id="Fill-60" fill="url(#linearGradient-26)" mask="url(#mask-25)"></path>
                </g>
                <g id="Group-69" transform="translate(23.000000, 122.252000)">
                    <polygon id="Fill-63" fill="#FFFFFF" points="236.9588 43.5737 236.4738 18.8287 237.0068 18.8127 237.4968 43.5737"></polygon>
                    <polygon id="Fill-65" fill="#FFFFFF" points="231.6042 0.0816 231.9392 2.0826 225.7012 2.0706 226.1102 0.0816"></polygon>
                    <polygon id="Fill-67" fill="#FCA372" points="1.9589 10.4881 8.4809 22.7721 1.2939 22.4261 0.7899 10.0921"></polygon>
                </g>
                <g id="Group-72" transform="translate(12.000000, 127.252000)">
                    <mask id="mask-28" fill="white">
                        <use xlink:href="#path-27"></use>
                    </mask>
                    <g id="Clip-71"></g>
                    <polygon id="Fill-70" fill="url(#linearGradient-29)" mask="url(#mask-28)" points="2.717 0.045 0.442 38.975 11.238 38.975 8.741 0.036"></polygon>
                </g>
                <g id="Group-83" transform="translate(2.000000, 239.252000)">
                    <g id="Group-75" transform="translate(0.000000, 2.000000)">
                        <mask id="mask-31" fill="white">
                            <use xlink:href="#path-30"></use>
                        </mask>
                        <g id="Clip-74"></g>
                        <path d="M1.6568,0.3521 C1.6568,0.3521 0.1678,1.5221 0.4408,3.0141 C0.7138,4.5061 1.0998,8.0001 1.0998,8.0001 L2.6308,8.0001 L2.5838,4.7411 C2.5888,4.5281 5.8678,8.0001 6.4228,8.0001 L14.5238,8.0001 C14.5238,8.0001 15.0618,5.8021 10.3048,5.0951 C5.5478,4.3891 1.6568,0.3521 1.6568,0.3521" id="Fill-73" fill="#061E43" mask="url(#mask-31)"></path>
                    </g>
                    <path d="M5.1679,0.8653 L6.2659,3.7233 C6.5359,4.5093 7.0629,5.1753 7.7619,5.6223 C8.5349,6.1173 9.7449,6.8073 11.5449,7.3393 C9.3429,9.2193 5.8399,7.2563 3.8359,5.8683 C2.8589,5.1923 2.1679,4.1823 1.8769,3.0303 L1.4179,0.8653 L5.1679,0.8653 Z" id="Fill-76" fill="#FCA372"></path>
                    <g id="Group-80" transform="translate(15.000000, 2.000000)">
                        <mask id="mask-33" fill="white">
                            <use xlink:href="#path-32"></use>
                        </mask>
                        <g id="Clip-79"></g>
                        <path d="M2.0895,0.3521 C2.0895,0.3521 0.6005,1.5221 0.8735,3.0141 C1.1465,4.5061 1.5325,8.0001 1.5325,8.0001 L3.0635,8.0001 L3.0165,4.7411 C3.0215,4.5281 6.3005,8.0001 6.8555,8.0001 L14.9565,8.0001 C14.9565,8.0001 15.4945,5.8021 10.7375,5.0951 C5.9805,4.3891 2.0895,0.3521 2.0895,0.3521" id="Fill-78" fill="#061E43" mask="url(#mask-33)"></path>
                    </g>
                    <path d="M20.6008,0.8653 L21.6988,3.7233 C21.9688,4.5093 22.4958,5.1753 23.1948,5.6223 C23.9678,6.1173 25.1778,6.8073 26.9768,7.3393 C24.7758,9.2193 21.2728,7.2563 19.2688,5.8683 C18.2918,5.1923 17.6008,4.1823 17.3098,3.0303 L16.8508,0.8653 L20.6008,0.8653 Z" id="Fill-81" fill="#FCA372"></path>
                </g>
                <g id="Group-86" transform="translate(10.000000, 165.252000)">
                    <mask id="mask-35" fill="white">
                        <use xlink:href="#path-34"></use>
                    </mask>
                    <g id="Clip-85"></g>
                    <path d="M0.096,0.975 C0.096,0.975 -0.915,6.795 4.905,35.402 L4.905,35.402 C0.193,50.309 7.738,75.254 7.738,75.254 L7.738,75.254 L13.238,75.254 L16.983,0.975 L0.096,0.975 Z" id="Fill-84" fill="url(#linearGradient-36)" mask="url(#mask-35)"></path>
                </g>
                <g id="Group-89" transform="translate(20.000000, 127.252000)">
                    <mask id="mask-38" fill="white">
                        <use xlink:href="#path-37"></use>
                    </mask>
                    <g id="Clip-88"></g>
                    <path d="M0.08,0.045 L2.034,47.29 L8.508,44.518 C8.508,44.518 5.592,35.649 5.869,23.328 L5.869,23.328 C4.879,14.419 9.933,19.112 3.74,1.957 L3.74,1.957 C1.455,0.054 0.105,0.045 0.08,0.045 L0.08,0.045 C0.08,0.045 0.08,0.045 0.08,0.045" id="Fill-87" fill="url(#linearGradient-39)" mask="url(#mask-38)"></path>
                </g>
                <path d="M20.9254,122.4164 L20.1674,126.4004 C19.8334,128.1524 17.8424,129.0214 16.3304,128.0744 L13.6734,126.4084 L18.4174,115.6844 L20.9254,122.4164 Z" id="Fill-90" fill="#FB886B"></path>
                <g id="Group-94" transform="translate(1.000000, 165.252000)">
                    <mask id="mask-41" fill="white">
                        <use xlink:href="#path-40"></use>
                    </mask>
                    <g id="Clip-93"></g>
                    <path d="M3.804,0.975 C3.804,0.975 -3.402,6.795 2.418,35.402 L2.418,35.402 C-2.293,50.309 1.864,75.254 1.864,75.254 L1.864,75.254 L6.801,75.254 L20.69,0.975 L3.804,0.975 Z" id="Fill-92" fill="url(#linearGradient-42)" mask="url(#mask-41)"></path>
                </g>
                <g id="Group-97" transform="translate(0.000000, 123.252000)">
                    <mask id="mask-44" fill="white">
                        <use xlink:href="#path-43"></use>
                    </mask>
                    <g id="Clip-96"></g>
                    <path d="M6.745,6.511 C4.943,9.42 4.319,16.041 4.146,21.935 L4.146,21.935 C3.908,30.029 0,51.29 0,51.29 L0,51.29 L16.305,51.29 L16.711,5.004 L14.717,0.04 C14.717,0.04 8.635,3.459 6.745,6.511" id="Fill-95" fill="url(#linearGradient-45)" mask="url(#mask-44)"></path>
                </g>
                <g id="Group-114" transform="translate(3.000000, 104.252000)">
                    <path d="M23.7211,6.2159 C20.0331,5.2809 16.4861,9.0619 16.4861,9.0619 L13.7111,24.0039 L9.4451,17.4279 C9.4451,17.4279 9.2011,8.4929 13.3251,2.5769 C16.2791,-1.0061 21.9471,0.0219 24.8131,3.5069 C26.2071,5.2019 26.4981,7.5419 26.3631,9.6949 C26.1821,12.5849 25.3631,29.1779 25.3631,29.1779 L16.9141,22.9199 C16.9141,22.9199 17.1171,21.2329 17.9251,18.1649 C19.3171,12.8839 26.1971,6.8439 23.7211,6.2159" id="Fill-98" fill="#070B3B"></path>
                    <path d="M15.3814,8.8329 C15.9264,8.6119 16.6314,8.9789 16.9554,9.6539 C17.2794,10.3289 17.1004,11.0549 16.5564,11.2769 C16.0114,11.4979 15.3064,11.1299 14.9814,10.4549 C14.6574,9.7809 14.8364,9.0539 15.3814,8.8329" id="Fill-100" fill="#FCA372"></path>
                    <path d="M19.3387,18.8653 C20.0237,19.1173 20.6957,19.2593 21.1427,19.0993 C24.3497,16.7743 25.5087,7.4893 25.5087,7.4893 L22.9687,4.7913 L17.9097,5.9023 L15.4177,11.4323 C14.7527,12.9083 14.8287,14.6133 15.6247,16.0243 C16.5687,17.3033 17.8467,18.3153 19.3387,18.8653" id="Fill-102" fill="#FCA372"></path>
                    <path d="M24.5658,6.0231 C24.3028,8.8321 16.4858,9.0621 16.4858,9.0621 L16.0788,5.2601 L20.6358,2.7511 L24.2428,4.9211 C24.2428,4.9211 24.6068,5.5541 24.5658,6.0231" id="Fill-104" fill="#070B3B"></path>
                    <path d="M24.3955,6.568 C24.1355,7.613 25.1945,9.435 25.1945,9.435 L25.8165,8.311 L25.7995,7.339 L25.1855,6.58 C25.1855,6.58 24.6555,5.523 24.3955,6.568" id="Fill-106" fill="#070B3B"></path>
                    <path d="M5.4072,25.5113 C-2.4828,26.4323 1.2442,46.7853 2.9392,55.1423 C3.3562,57.1983 5.4592,58.4543 7.4612,57.8223 C14.3252,55.6573 24.3542,46.6673 24.3542,46.6673 L22.7652,44.6653 L9.4422,47.7763 C9.4422,47.7763 14.5532,24.4443 5.4072,25.5113" id="Fill-108" fill="#FCAE80"></path>
                    <path d="M21.1912,39.8863 L18.6152,55.8323 C18.5402,56.2943 18.8972,56.7133 19.3652,56.7133 L29.5652,56.7133 C29.9382,56.7133 30.2562,56.4413 30.3152,56.0723 L32.8452,40.1263 C32.9182,39.6653 32.5622,39.2483 32.0952,39.2483 L21.9412,39.2483 C21.5682,39.2483 21.2502,39.5183 21.1912,39.8863" id="Fill-110" fill="#FFFFFF"></path>
                    <path d="M32.5118,46.9468 C32.5748,46.3858 32.5218,46.0348 32.3338,44.8748 C32.0908,43.3668 32.1548,41.0038 30.6138,42.1818 C29.1588,44.0078 28.9898,45.9498 28.9898,45.9498 C28.6928,47.0208 29.3488,48.5098 29.9618,49.3178 L31.0208,51.6248 C31.0208,51.6248 32.8488,49.4978 32.5118,46.9468" id="Fill-112" fill="#FCA372"></path>
                </g>
            </g>
        </g>
    </g>
</svg>