<?xml version="1.0" encoding="UTF-8"?>
<svg width="365px" height="296px" viewBox="0 0 365 296" version="1.1" xmlns="http://www.w3.org/2000/svg" xmlns:xlink="http://www.w3.org/1999/xlink">
    <!-- Generator: Sketch 56.3 (81716) - https://sketch.com -->
    <title>sol_doc_02</title>
    <desc>Created with Sketch.</desc>
    <defs>
        <path d="M0.844,0.106 L0.844,18.334 L27.548,18.334 L27.548,43.572 L26.706,228.435 C26.706,242.906 38.546,254.747 53.017,254.747 L53.017,254.747 C55.31,254.747 194.919,254.874 194.919,254.874 L194.919,254.874 L194.919,42.4 C194.919,19.042 175.984,0.106 152.625,0.106 L152.625,0.106 L0.844,0.106 Z" id="path-1"></path>
        <linearGradient x1="-1.47880974e-05%" y1="50.0002238%" x2="100.000086%" y2="50.0002238%" id="linearGradient-3">
            <stop stop-color="#E6E8FD" offset="0%"></stop>
            <stop stop-color="#C6C4E2" offset="100%"></stop>
        </linearGradient>
        <path d="M19.79,0.17 C9.252,0.19 0.63,8.827 0.63,19.364 L0.63,19.364 L0.63,36.271 L46.1,36.271 L46.1,26.262 C46.1,11.911 34.261,0.17 19.79,0.17 Z" id="path-4"></path>
        <linearGradient x1="0.000161645041%" y1="50.0007318%" x2="100.001247%" y2="50.0007318%" id="linearGradient-6">
            <stop stop-color="#8990F9" offset="0%"></stop>
            <stop stop-color="#4F44A3" offset="100%"></stop>
        </linearGradient>
        <path d="M19.697,0.863 C29.197,36.017 0.693,41.874 0.693,41.874 L0.693,41.874 L141.707,41.874 C179.313,41.874 169.813,0.863 169.813,0.863 L169.813,0.863 L19.697,0.863 Z" id="path-7"></path>
        <linearGradient x1="-2.19754004e-05%" y1="50.0014969%" x2="100.000197%" y2="50.0014969%" id="linearGradient-9">
            <stop stop-color="#8990F9" offset="0%"></stop>
            <stop stop-color="#4F44A3" offset="100%"></stop>
        </linearGradient>
        <path d="M0.403,6.648 C2.676,6.302 12.634,4.263 14.863,0.771 L14.863,0.771 C11.921,2.015 9.118,0.101 9.118,0.101 L9.118,0.101 C9.118,0.101 5.465,5.544 0.403,6.648" id="path-10"></path>
        <linearGradient x1="0.00179322268%" y1="49.9971498%" x2="99.9990235%" y2="49.9971498%" id="linearGradient-12">
            <stop stop-color="#E6E8FD" offset="0%"></stop>
            <stop stop-color="#C6C4E2" offset="100%"></stop>
        </linearGradient>
        <path d="M0.176,8.714 L38.895,37.319 C45.457,26.735 42.902,12.714 32.71,5.184 L32.71,5.184 C28.393,1.995 23.365,0.456999737 18.382,0.456999737 L18.382,0.456999737 C11.598,0.456 4.897,3.305 0.176,8.714" id="path-13"></path>
        <linearGradient x1="-0.00114755554%" y1="49.9995877%" x2="99.9995613%" y2="49.9995877%" id="linearGradient-15">
            <stop stop-color="#FF8238" offset="0%"></stop>
            <stop stop-color="#FFBF00" offset="100%"></stop>
        </linearGradient>
        <path d="M3.285,12.789 C1.071,16.59 0.012,20.746 0,24.849 L0,24.849 L0,24.992 C0.023,32.659 3.701,40.127 10.33,44.747 L10.33,44.747 L34.558,3.149 C31.226,1.555 27.681,0.792 24.175,0.792 L24.175,0.792 C15.861,0.792 7.771,5.087 3.285,12.789" id="path-16"></path>
        <linearGradient x1="0%" y1="50.000071%" x2="99.9997532%" y2="50.000071%" id="linearGradient-18">
            <stop stop-color="#FF8238" offset="0%"></stop>
            <stop stop-color="#FFBF00" offset="100%"></stop>
        </linearGradient>
        <path d="M31.067,2.025 C18.128,4.696 9.107,9.893 4.249,17.476 L4.249,17.476 C-1.225,26.019 0.812,34.151 1.063,35.05 L1.063,35.05 L11.457,32.282 C11.409,32.087 10.301,27.447 13.466,22.643 L13.466,22.643 C16.683,17.765 23.491,14.13 33.154,12.135 L33.154,12.135 C41.977,10.314 48.946,11.067 53.871,14.37 L53.871,14.37 C60.256,18.655 61.387,26.122 61.395,26.161 L61.395,26.161 L72.054,24.736 C71.994,24.255 70.437,12.891 60.264,5.96 L60.264,5.96 C55.242,2.539 49.141,0.823 42.041,0.823 L42.041,0.823 C38.612,0.823 34.951,1.223 31.067,2.025" id="path-19"></path>
        <linearGradient x1="0.000193564778%" y1="50.0002469%" x2="99.999319%" y2="50.0002469%" id="linearGradient-21">
            <stop stop-color="#FF8238" offset="0%"></stop>
            <stop stop-color="#FFBF00" offset="100%"></stop>
        </linearGradient>
        <path d="M56.091,1.613 C18.975,8.732 -5.342,44.591 1.776,81.706 L1.776,81.706 C8.895,118.822 44.753,143.139 81.868,136.021 L81.868,136.021 C118.984,128.902 143.302,93.043 136.184,55.928 L136.184,55.928 C129.9,23.166 101.222,0.376 69.055,0.376 L69.055,0.376 C64.78,0.376 60.445,0.778 56.091,1.613" id="path-22"></path>
        <linearGradient x1="-0.000111552209%" y1="49.9999577%" x2="99.9996342%" y2="49.9999577%" id="linearGradient-24">
            <stop stop-color="#8990F9" offset="0%"></stop>
            <stop stop-color="#4F44A3" offset="100%"></stop>
        </linearGradient>
        <path d="M0.791,2.094 C1.14,8.891 2.663,22.08 8.837,36.612 L8.837,36.612 C10.44,38.18 12.514,25.982 9.195,16.024 L9.195,16.024 C7.844,11.975 5.253,5.59 3.054,1.469 L3.054,1.469 C2.818,1.026 2.412,0.829 2.008,0.829 L2.008,0.829 C1.376,0.829 0.751,1.311 0.791,2.094" id="path-25"></path>
        <linearGradient x1="-7.74068584e-05%" y1="49.9996799%" x2="100.000875%" y2="49.9996799%" id="linearGradient-27">
            <stop stop-color="#0E1123" offset="0%"></stop>
            <stop stop-color="#4F44A3" offset="100%"></stop>
        </linearGradient>
        <path d="M10.445,11.52 C7.659,14.753 3.503,20.25 1.089,24.249 L1.089,24.249 C0.426,25.349 1.716,26.586 2.786,25.872 L2.786,25.872 C8.444,22.09 18.992,14.027 28.31,1.281 L28.31,1.281 C28.399,0.908 28.137,0.73 27.605,0.73 L27.605,0.73 C25.026,0.731 16.125,4.928 10.445,11.52" id="path-28"></path>
        <linearGradient x1="5.81412878e-05%" y1="49.9999355%" x2="100.000609%" y2="49.9999355%" id="linearGradient-30">
            <stop stop-color="#0E1123" offset="0%"></stop>
            <stop stop-color="#4F44A3" offset="100%"></stop>
        </linearGradient>
        <linearGradient x1="-0.000589696121%" y1="50.0019151%" x2="100.002568%" y2="50.0019151%" id="linearGradient-31">
            <stop stop-color="#FF8238" offset="0%"></stop>
            <stop stop-color="#FFBF00" offset="100%"></stop>
        </linearGradient>
        <linearGradient x1="0.00166674193%" y1="50.0019151%" x2="100.001212%" y2="50.0019151%" id="linearGradient-32">
            <stop stop-color="#FF8238" offset="0%"></stop>
            <stop stop-color="#FFBF00" offset="100%"></stop>
        </linearGradient>
        <linearGradient x1="-0.000660015349%" y1="50.0019151%" x2="99.9993359%" y2="50.0019151%" id="linearGradient-33">
            <stop stop-color="#FF8238" offset="0%"></stop>
            <stop stop-color="#FFBF00" offset="100%"></stop>
        </linearGradient>
        <linearGradient x1="0.00166674193%" y1="49.9984477%" x2="100.001212%" y2="49.9984477%" id="linearGradient-34">
            <stop stop-color="#FF8238" offset="0%"></stop>
            <stop stop-color="#FFBF00" offset="100%"></stop>
        </linearGradient>
        <linearGradient x1="-0.000660015349%" y1="49.9984477%" x2="99.9993359%" y2="49.9984477%" id="linearGradient-35">
            <stop stop-color="#FF8238" offset="0%"></stop>
            <stop stop-color="#FFBF00" offset="100%"></stop>
        </linearGradient>
        <linearGradient x1="-0.000589696121%" y1="50.000295%" x2="100.002568%" y2="50.000295%" id="linearGradient-36">
            <stop stop-color="#FF8238" offset="0%"></stop>
            <stop stop-color="#FFBF00" offset="100%"></stop>
        </linearGradient>
        <path d="M0.292,5.81 C2.284,5.506 11.008,3.721 12.961,0.661 L12.961,0.661 C10.382,1.751 7.927,0.073 7.927,0.073 L7.927,0.073 C7.927,0.073 4.727,4.842 0.292,5.81" id="path-37"></path>
        <linearGradient x1="0.00210592786%" y1="50.0020899%" x2="99.9965783%" y2="50.0020899%" id="linearGradient-39">
            <stop stop-color="#E6E8FD" offset="0%"></stop>
            <stop stop-color="#C6C4E2" offset="100%"></stop>
        </linearGradient>
        <polygon id="path-40" points="0.436113501 0.9541 12.5053241 0.9541 12.5053241 8 0.436113501 8"></polygon>
        <path d="M3.503,61.519 C10.372,79.178 26.585,90.428 44.286,91.831 L44.286,91.831 C47.338,90.077 50.665,89.03 54.305,88.785 L54.305,88.785 C56.656,88.739 58.973,88.529 61.275,88.186 L61.275,88.186 C61.394,88.15 61.516,88.134 61.635,88.1 L61.635,88.1 L27.729,0.947 C5.152,11.525 -5.67,37.94 3.503,61.519" id="path-42"></path>
        <linearGradient x1="99.9999661%" y1="50.0000419%" x2="-0.000402394635%" y2="50.0000419%" id="linearGradient-44">
            <stop stop-color="#8990F9" offset="0%"></stop>
            <stop stop-color="#4F44A3" offset="100%"></stop>
        </linearGradient>
        <path d="M0.303,5.634 C0.303,5.634 4.846,10.494 10.197,17.395 L10.197,17.395 C10.166,17.542 10.129,17.676 10.102,17.836 L10.102,17.836 C9.816,19.533 10.303,21.047 11.07,22.29 L11.07,22.29 C11.736,23.37 12.159,24.579 12.202,25.847 L12.202,25.847 C12.202,25.855 12.203,25.862 12.203,25.869 L12.203,25.869 C12.42,32.369 12.737,41.637 12.737,41.637 L12.737,41.637 L26.68,36.438 C26.68,36.438 24.796,30.801 27.204,20.144 L27.204,20.144 C28.078,16.278 27.206,12.621 25.9,11.272 L25.9,11.272 C22.32,7.582 18.223,10.286 18.223,10.286 L18.223,10.286 L15.19,10.273 L4.85,0.456 L0.303,5.634 Z" id="path-45"></path>
        <linearGradient x1="99.9997858%" y1="49.9997989%" x2="0.000446184462%" y2="49.9997989%" id="linearGradient-47">
            <stop stop-color="#FF8238" offset="0%"></stop>
            <stop stop-color="#FFBF00" offset="100%"></stop>
        </linearGradient>
        <path d="M0.598,15.183 C0.598,18.27 1.355,37.723 1.355,37.723 L1.355,37.723 C1.355,37.723 14.601,38.682 17.174,38.682 L17.174,38.682 C17.812,22.741 21.445,22.251 21.445,14.817 L21.445,14.817 C21.445,11.586 19.789,7.933 18.518,5.606 L18.518,5.606 C17.604,3.935 17.032,2.768 16.68,0.438 L16.68,0.438 L16.594,0.136 L2.453,0.114 C2.453,0.114 0.598,9.562 0.598,15.183" id="path-48"></path>
        <linearGradient x1="100.004573%" y1="50.0003233%" x2="-0.000203386578%" y2="50.0003233%" id="linearGradient-50">
            <stop stop-color="#0E1123" offset="0%"></stop>
            <stop stop-color="#4F44A3" offset="100%"></stop>
        </linearGradient>
    </defs>
    <g id="Page-1" stroke="none" stroke-width="1" fill="none" fill-rule="evenodd">
        <g id="Web_Illustrations" transform="translate(-595.000000, -1516.000000)">
            <g id="sol_doc_02" transform="translate(595.000000, 1515.000000)">
                <g id="Group-3" transform="translate(110.000000, 1.830000)">
                    <mask id="mask-2" fill="white">
                        <use xlink:href="#path-1"></use>
                    </mask>
                    <g id="Clip-2"></g>
                    <path d="M0.844,0.106 L0.844,18.334 L27.548,18.334 L27.548,43.572 L26.706,228.435 C26.706,242.906 38.546,254.747 53.017,254.747 L53.017,254.747 C55.31,254.747 194.919,254.874 194.919,254.874 L194.919,254.874 L194.919,42.4 C194.919,19.042 175.984,0.106 152.625,0.106 L152.625,0.106 L0.844,0.106 Z" id="Fill-1" fill="url(#linearGradient-3)" mask="url(#mask-2)"></path>
                </g>
                <g id="Group-6" transform="translate(92.000000, 0.830000)">
                    <mask id="mask-5" fill="white">
                        <use xlink:href="#path-4"></use>
                    </mask>
                    <g id="Clip-5"></g>
                    <path d="M19.79,0.17 C9.252,0.19 0.63,8.827 0.63,19.364 L0.63,19.364 L0.63,36.271 L46.1,36.271 L46.1,26.262 C46.1,11.911 34.261,0.17 19.79,0.17 Z" id="Fill-4" fill="url(#linearGradient-6)" mask="url(#mask-5)"></path>
                </g>
                <g id="Group-9" transform="translate(170.000000, 214.830000)">
                    <mask id="mask-8" fill="white">
                        <use xlink:href="#path-7"></use>
                    </mask>
                    <g id="Clip-8"></g>
                    <path d="M19.697,0.863 C29.197,36.017 0.693,41.874 0.693,41.874 L0.693,41.874 L141.707,41.874 C179.313,41.874 169.813,0.863 169.813,0.863 L169.813,0.863 L19.697,0.863 Z" id="Fill-7" fill="url(#linearGradient-9)" mask="url(#mask-8)"></path>
                </g>
                <path d="M225.8372,132.5204 L257.9162,132.5204 C257.9162,132.5204 258.5692,152.5034 255.0602,153.1484 C251.5502,153.7924 250.1182,151.9304 250.1182,151.9304 C250.1182,151.9304 246.4652,157.8754 240.3772,158.6634 C234.2892,159.4514 225.8372,159.5944 225.8372,159.5944 L225.8372,132.5204 Z" id="Fill-10" fill="#FFFFFF"></path>
                <g id="Group-14" transform="translate(241.000000, 151.830000)">
                    <mask id="mask-11" fill="white">
                        <use xlink:href="#path-10"></use>
                    </mask>
                    <g id="Clip-13"></g>
                    <path d="M0.403,6.648 C2.676,6.302 12.634,4.263 14.863,0.771 L14.863,0.771 C11.921,2.015 9.118,0.101 9.118,0.101 L9.118,0.101 C9.118,0.101 5.465,5.544 0.403,6.648" id="Fill-12" fill="url(#linearGradient-12)" mask="url(#mask-11)"></path>
                </g>
                <polygon id="Fill-15" fill="#FEAB2D" points="116.1476 144.4694 128.0306 134.3544 143.3806 145.5244 132.9186 159.5524 120.0216 149.3234"></polygon>
                <g id="Group-19" transform="translate(114.000000, 120.830000)">
                    <mask id="mask-14" fill="white">
                        <use xlink:href="#path-13"></use>
                    </mask>
                    <g id="Clip-18"></g>
                    <path d="M0.176,8.714 L38.895,37.319 C45.457,26.735 42.902,12.714 32.71,5.184 L32.71,5.184 C28.393,1.995 23.365,0.456999737 18.382,0.456999737 L18.382,0.456999737 C11.598,0.456 4.897,3.305 0.176,8.714" id="Fill-17" fill="url(#linearGradient-15)" mask="url(#mask-14)"></path>
                </g>
                <polygon id="Fill-20" fill="#FEAB2D" points="38.6569 160.4652 23.7399 155.8822 14.0679 172.2172 29.2289 180.9562 37.0219 166.4562"></polygon>
                <g id="Group-24" transform="translate(0.000000, 142.830000)">
                    <mask id="mask-17" fill="white">
                        <use xlink:href="#path-16"></use>
                    </mask>
                    <g id="Clip-23"></g>
                    <path d="M3.285,12.789 C1.071,16.59 0.012,20.746 0,24.849 L0,24.849 L0,24.992 C0.023,32.659 3.701,40.127 10.33,44.747 L10.33,44.747 L34.558,3.149 C31.226,1.555 27.681,0.792 24.175,0.792 L24.175,0.792 C15.861,0.792 7.771,5.087 3.285,12.789" id="Fill-22" fill="url(#linearGradient-18)" mask="url(#mask-17)"></path>
                </g>
                <g id="Group-27" transform="translate(39.000000, 113.830000)">
                    <mask id="mask-20" fill="white">
                        <use xlink:href="#path-19"></use>
                    </mask>
                    <g id="Clip-26"></g>
                    <path d="M31.067,2.025 C18.128,4.696 9.107,9.893 4.249,17.476 L4.249,17.476 C-1.225,26.019 0.812,34.151 1.063,35.05 L1.063,35.05 L11.457,32.282 C11.409,32.087 10.301,27.447 13.466,22.643 L13.466,22.643 C16.683,17.765 23.491,14.13 33.154,12.135 L33.154,12.135 C41.977,10.314 48.946,11.067 53.871,14.37 L53.871,14.37 C60.256,18.655 61.387,26.122 61.395,26.161 L61.395,26.161 L72.054,24.736 C71.994,24.255 70.437,12.891 60.264,5.96 L60.264,5.96 C55.242,2.539 49.141,0.823 42.041,0.823 L42.041,0.823 C38.612,0.823 34.951,1.223 31.067,2.025" id="Fill-25" fill="url(#linearGradient-21)" mask="url(#mask-20)"></path>
                </g>
                <g id="Group-30" transform="translate(18.000000, 129.830000)">
                    <mask id="mask-23" fill="white">
                        <use xlink:href="#path-22"></use>
                    </mask>
                    <g id="Clip-29"></g>
                    <path d="M56.091,1.613 C18.975,8.732 -5.342,44.591 1.776,81.706 L1.776,81.706 C8.895,118.822 44.753,143.139 81.868,136.021 L81.868,136.021 C118.984,128.902 143.302,93.043 136.184,55.928 L136.184,55.928 C129.9,23.166 101.222,0.376 69.055,0.376 L69.055,0.376 C64.78,0.376 60.445,0.778 56.091,1.613" id="Fill-28" fill="url(#linearGradient-24)" mask="url(#mask-23)"></path>
                </g>
                <g id="Group-69" transform="translate(30.000000, 134.830000)">
                    <path d="M117.4765,44.1647 C117.3975,44.0897 117.3205,44.0137 117.2415,43.9387 C116.8245,43.5437 116.4025,43.1547 115.9805,42.7647 C117.0425,45.7357 117.8915,48.8247 118.5045,52.0167 C124.9605,85.6807 102.8255,118.3207 69.1625,124.7777 C49.7795,128.4947 30.7365,122.7327 16.8355,110.7487 C16.7555,111.0907 16.6475,111.4237 16.5275,111.7507 C30.6155,123.7327 49.8085,129.4707 69.3435,125.7237 C103.5295,119.1677 126.0075,86.0217 119.4505,51.8357 C118.9465,49.2067 118.2835,46.6477 117.4765,44.1647" id="Fill-31" fill="#FFFFFF"></path>
                    <path d="M6.779,27.7727 C15.734,15.1447 29.376,5.8147 45.744,2.6747 C47.888,2.2637 50.027,1.9697 52.157,1.7867 C52.127,1.4647 52.111,1.1437 52.111,0.8237 C49.937,1.0097 47.752,1.3087 45.562,1.7287 C29.177,4.8707 15.484,14.1247 6.386,26.6717 C6.542,27.0277 6.67,27.3967 6.779,27.7727" id="Fill-33" fill="#FFFFFF"></path>
                    <path d="M1.6076,74.4371 C7.5226,105.2791 37.3216,125.4871 68.1636,119.5721 C99.0066,113.6561 119.2136,83.8581 113.2986,53.0151 C107.3826,22.1731 77.5846,1.9661 46.7426,7.8811 C15.8996,13.7961 -4.3074,43.5941 1.6076,74.4371" id="Fill-35" fill="#D0CDFC"></path>
                    <polygon id="Fill-37" fill="#061E43" points="50.0771 21.4312 48.6571 21.7032 46.3051 9.4372 47.7241 9.1652"></polygon>
                    <polygon id="Fill-39" fill="#061E43" points="68.5637 117.8196 67.1437 118.0916 64.7907 105.8256 66.2107 105.5536"></polygon>
                    <polygon id="Fill-41" fill="#061E43" points="99.6312 56.2712 99.3592 54.8512 111.6252 52.4992 111.8972 53.9192"></polygon>
                    <polygon id="Fill-43" fill="#061E43" points="3.2429 74.7578 2.9709 73.3378 15.2369 70.9858 15.5089 72.4048"></polygon>
                    <polygon id="Fill-45" fill="#061E43" points="95.5947 90.0815 96.1287 89.2945 102.9327 93.9075 102.3977 94.6955"></polygon>
                    <polygon id="Fill-47" fill="#061E43" points="11.3842 32.9746 11.9182 32.1866 18.7212 36.8006 18.1872 37.5886"></polygon>
                    <polygon id="Fill-49" fill="#061E43" points="83.7986 25.0046 83.0106 24.4706 87.6246 17.6666 88.4126 18.2016"></polygon>
                    <polygon id="Fill-51" fill="#061E43" points="26.6916 109.2153 25.9036 108.6813 30.5176 101.8773 31.3056 102.4123"></polygon>
                    <polygon id="Fill-53" fill="#061E43" points="95.5173 36.6895 94.9653 35.9145 101.6593 31.1435 102.2113 31.9185"></polygon>
                    <polygon id="Fill-55" fill="#061E43" points="12.6568 95.7384 12.1048 94.9634 18.7988 90.1924 19.3508 90.9674"></polygon>
                    <polygon id="Fill-57" fill="#061E43" points="67.3211 17.7926 66.3901 17.5956 68.0951 9.5536 69.0261 9.7506"></polygon>
                    <polygon id="Fill-59" fill="#061E43" points="46.2214 117.3287 45.2904 117.1317 46.9954 109.0897 47.9264 109.2867"></polygon>
                    <polygon id="Fill-61" fill="#061E43" points="31.3345 24.4512 30.5465 24.9852 25.9385 18.1782 26.7255 17.6442"></polygon>
                    <polygon id="Fill-63" fill="#061E43" points="88.3784 108.7046 87.5904 109.2376 82.9824 102.4316 83.7694 101.8976"></polygon>
                    <polygon id="Fill-65" fill="#061E43" points="11.5065 53.292 11.3095 54.223 3.2675 52.521 3.4645 51.59"></polygon>
                    <polygon id="Fill-67" fill="#061E43" points="111.049 74.3617 110.852 75.2927 102.81 73.5907 103.007 72.6597"></polygon>
                </g>
                <g id="Group-72" transform="translate(80.000000, 163.830000)">
                    <mask id="mask-26" fill="white">
                        <use xlink:href="#path-25"></use>
                    </mask>
                    <g id="Clip-71"></g>
                    <path d="M0.791,2.094 C1.14,8.891 2.663,22.08 8.837,36.612 L8.837,36.612 C10.44,38.18 12.514,25.982 9.195,16.024 L9.195,16.024 C7.844,11.975 5.253,5.59 3.054,1.469 L3.054,1.469 C2.818,1.026 2.412,0.829 2.008,0.829 L2.008,0.829 C1.376,0.829 0.751,1.311 0.791,2.094" id="Fill-70" fill="url(#linearGradient-27)" mask="url(#mask-26)"></path>
                </g>
                <g id="Group-75" transform="translate(62.000000, 199.830000)">
                    <mask id="mask-29" fill="white">
                        <use xlink:href="#path-28"></use>
                    </mask>
                    <g id="Clip-74"></g>
                    <path d="M10.445,11.52 C7.659,14.753 3.503,20.25 1.089,24.249 L1.089,24.249 C0.426,25.349 1.716,26.586 2.786,25.872 L2.786,25.872 C8.444,22.09 18.992,14.027 28.31,1.281 L28.31,1.281 C28.399,0.908 28.137,0.73 27.605,0.73 L27.605,0.73 C25.026,0.731 16.125,4.928 10.445,11.52" id="Fill-73" fill="url(#linearGradient-30)" mask="url(#mask-29)"></path>
                </g>
                <g id="Group-84" transform="translate(82.000000, 164.830000)">
                    <path d="M1,33.5878 C1.514,36.2688 4.104,38.0248 6.785,37.5108 C9.465,36.9968 11.221,34.4068 10.707,31.7258 C10.193,29.0458 7.603,27.2898 4.923,27.8038 C2.242,28.3178 0.486,30.9068 1,33.5878" id="Fill-76" fill="#FFFFFF"></path>
                    <path d="M3.7356,33.0632 C3.9596,34.2332 5.0906,34.9992 6.2596,34.7752 C7.4296,34.5502 8.1956,33.4202 7.9716,32.2512 C7.7476,31.0812 6.6166,30.3152 5.4476,30.5392 C4.2776,30.7632 3.5116,31.8932 3.7356,33.0632" id="Fill-78" fill="#061E43"></path>
                    <path d="M23.5619,10.0581 C22.9919,13.7101 25.4909,17.1331 29.1429,17.7031 C32.7949,18.2721 36.2169,15.7741 36.7869,12.1221 C37.3569,8.4701 34.8579,5.0471 31.2069,4.4771 C27.5539,3.9081 24.1319,6.4061 23.5619,10.0581" id="Fill-80" fill="#FFFFFF"></path>
                    <path d="M18.071,3.6507 C17.786,5.4767 19.035,7.1877 20.861,7.4727 C22.687,7.7577 24.399,6.5087 24.684,4.6827 C24.969,2.8567 23.719,1.1457 21.893,0.8607 C20.067,0.5757 18.356,1.8247 18.071,3.6507" id="Fill-82" fill="#FFFFFF"></path>
                </g>
                <polygon id="Fill-85" fill="url(#linearGradient-31)" points="192.96 72.035 215.107 72.035 215.107 50.543 192.96 50.543"></polygon>
                <polygon id="Fill-87" fill="url(#linearGradient-32)" points="231.828 72.035 253.973 72.035 253.973 50.543 231.828 50.543"></polygon>
                <polygon id="Fill-89" fill="url(#linearGradient-33)" points="270.169 72.035 292.32 72.035 292.32 50.543 270.169 50.543"></polygon>
                <g id="Group-94" transform="translate(154.000000, 90.830000)" fill="#FFFFFF">
                    <polygon id="Fill-91" points="0.153 22.457 22.298 22.457 22.298 0.965 0.153 0.965"></polygon>
                    <polygon id="Fill-93" points="38.96 22.457 61.108 22.457 61.108 0.965 38.96 0.965"></polygon>
                </g>
                <polygon id="Fill-95" fill="url(#linearGradient-34)" points="231.828 113.287 253.973 113.287 253.973 91.796 231.828 91.796"></polygon>
                <polygon id="Fill-97" fill="url(#linearGradient-35)" points="270.169 113.287 292.32 113.287 292.32 91.796 270.169 91.796"></polygon>
                <polygon id="Fill-99" fill="url(#linearGradient-36)" points="192.96 154.169 215.107 154.169 215.107 132.677 192.96 132.677"></polygon>
                <g id="Group-106" transform="translate(151.000000, 40.830000)" fill="#FFFFFF">
                    <polygon id="Fill-101" points="119.169 113.339 141.32 113.339 141.32 91.847 119.169 91.847"></polygon>
                    <path d="M116.4282,49.2769 C108.3642,54.0389 107.2342,64.6249 112.5992,71.8839 C118.0182,79.2149 128.5142,82.1109 136.8242,78.1619 C144.4512,74.5379 148.7652,65.1309 145.4712,57.1539 C141.7262,48.0879 131.0152,44.9139 122.6682,49.7219 C120.7432,50.8309 122.4802,53.8149 124.4102,52.7029 C131.0362,48.8869 139.5472,51.3899 142.3702,58.7029 C144.8332,65.0849 141.1442,72.4249 135.0812,75.1819 C128.5922,78.1319 120.4722,75.9549 115.9472,70.5839 C111.2362,64.9919 111.5112,56.1909 118.1702,52.2579 C120.0822,51.1289 118.3472,48.1439 116.4282,49.2769" id="Fill-103"></path>
                    <path d="M109.3627,20.6068 C112.3987,11.7478 106.3787,2.9668 97.5847,0.9348 C88.7017,-1.1182 78.8417,3.5018 75.0907,11.9018 C71.6477,19.6128 74.4807,29.5668 82.1677,33.4898 C90.9057,37.9478 101.1097,33.4008 104.3307,24.3228 C105.0727,22.2298 101.8137,21.0898 101.0687,23.1888 C98.5127,30.3948 90.4157,34.0218 83.5187,30.2978 C77.4997,27.0478 75.5347,19.0708 78.3517,13.0358 C81.3677,6.5768 88.9547,2.9548 95.8837,4.0978 C103.0987,5.2868 108.6087,12.1558 106.1017,19.4728 C105.3817,21.5738 108.6397,22.7158 109.3627,20.6068" id="Fill-104"></path>
                    <path d="M0.6547,10.0678 L28.7597,10.0678 C28.7597,10.0678 29.3317,27.5758 26.2567,28.1398 C23.1817,28.7048 21.9277,27.0738 21.9277,27.0738 C21.9277,27.0738 18.7267,32.2818 13.3927,32.9718 C8.0597,33.6618 0.6547,33.7878 0.6547,33.7878 L0.6547,10.0678 Z" id="Fill-105"></path>
                </g>
                <g id="Group-109" transform="translate(165.000000, 67.830000)">
                    <mask id="mask-38" fill="white">
                        <use xlink:href="#path-37"></use>
                    </mask>
                    <g id="Clip-108"></g>
                    <path d="M0.292,5.81 C2.284,5.506 11.008,3.721 12.961,0.661 L12.961,0.661 C10.382,1.751 7.927,0.073 7.927,0.073 L7.927,0.073 C7.927,0.073 4.727,4.842 0.292,5.81" id="Fill-107" fill="url(#linearGradient-39)" mask="url(#mask-38)"></path>
                </g>
                <g id="Group-135" transform="translate(243.000000, 17.830000)">
                    <polygon id="Fill-110" fill="#FB886B" points="86.7271 138.7808 95.1131 160.6928 100.3981 156.7598 88.5881 136.8488"></polygon>
                    <path d="M87.7661,132.155 C88.2951,132.807 88.5651,133.631 88.5241,134.469 L88.8951,137.632 L88.4631,138.122 L86.9791,139.439 C87.0311,138.784 87.1051,139.439 87.1051,139.439 L84.7191,135.286 C84.7191,135.286 81.8351,133.436 85.4731,130.707 C85.8211,130.446 86.3081,130.388 86.6691,130.631 C87.5751,131.238 87.7661,132.155 87.7661,132.155" id="Fill-112" fill="#FB886B"></path>
                    <path d="M105.2373,176.5187 C99.2163,168.4387 95.1123,160.6927 95.1123,160.6927 L99.6603,155.5157 L105.2373,162.0167 L105.2373,176.5187 Z" id="Fill-114" fill="#144D4C"></path>
                    <path d="M118.3359,271.4908 L115.6659,271.9538 C115.1139,268.6428 106.8089,252.9408 106.1339,244.7848 C105.3849,235.7318 103.2809,225.6518 103.2809,225.6518 L112.2129,222.9958 C112.2129,222.9958 114.4749,222.9958 111.9899,241.4478 C117.5759,248.7788 119.0729,265.4148 118.3359,271.4908" id="Fill-116" fill="#FB886B"></path>
                    <path d="M111.7586,216.2841 C111.7586,216.2841 109.6606,228.9061 106.7426,242.4071 C109.7906,250.5581 105.1456,273.3061 105.0596,273.2261 C104.7096,272.8961 103.1046,274.8731 103.1046,274.8731 C103.1046,274.8731 99.7176,254.7971 98.9686,245.7441 C98.2186,236.6901 98.0326,225.6521 98.0326,225.6521 L111.7586,216.2841 Z" id="Fill-118" fill="#FCA372"></path>
                    <g id="Group-122" transform="translate(94.000000, 271.000000)">
                        <mask id="mask-41" fill="white">
                            <use xlink:href="#path-40"></use>
                        </mask>
                        <g id="Clip-121"></g>
                        <path d="M11.4388,0.9541 C11.4388,0.9541 12.7098,2.0321 12.4768,3.4071 C12.2438,4.7811 11.9138,8.0001 11.9138,8.0001 L10.6068,8.0001 L10.6468,4.9981 C10.6428,4.8021 7.8438,8.0001 7.3688,8.0001 L0.4518,8.0001 C0.4518,8.0001 -0.0082,5.9751 4.0538,5.3241 C8.1168,4.6731 11.4388,0.9541 11.4388,0.9541" id="Fill-120" fill="#061E43" mask="url(#mask-41)"></path>
                    </g>
                    <path d="M115.3604,269.666 L115.5444,272.531 C115.5834,273.134 115.4174,273.728 115.0734,274.225 C114.6924,274.774 114.0524,275.525 112.9934,276.388 C114.9984,277.032 116.8224,274.783 117.7784,273.289 C118.2454,272.561 118.4264,271.689 118.2984,270.834 L117.9604,268.58 L115.3604,269.666 Z" id="Fill-123" fill="#FB886B"></path>
                    <path d="M118.3355,271.2417 C118.3355,271.2417 120.0995,271.3997 120.3925,272.7417 C120.6855,274.0837 121.5195,276.7987 121.5195,276.7987 L120.5565,277.5657 L119.2005,274.8737 C119.2005,274.8737 116.2825,278.8057 115.8185,278.9997 L108.2685,278.9997 C108.2685,278.9997 108.2685,276.5007 112.9935,276.3877 C117.3475,276.2837 118.3355,271.2417 118.3355,271.2417" id="Fill-125" fill="#070B3B"></path>
                    <polygon id="Fill-127" fill="#FB886B" points="103.2807 165.005 108.6847 165.005 106.5277 158.654 102.3027 161.25"></polygon>
                    <polygon id="Fill-129" fill="#FF980D" points="82.5817 123.8615 75.6447 126.5635 60.7227 88.2575 67.6597 85.5555"></polygon>
                    <path d="M81.2622,124.3764 L81.4612,124.2964 C81.4612,124.2964 68.7712,88.2144 66.5402,85.9904 C64.3082,83.7654 59.8132,82.5154 64.1332,86.9274 C68.4522,91.3404 81.2622,124.3764 81.2622,124.3764" id="Fill-131" fill="#FFFFFF"></path>
                    <path d="M63.9355,0.3257 C55.1455,0.3017 46.3215,0.0857 37.5895,1.1357 C36.1895,1.3047 30.2395,1.5107 34.1965,1.4657 C33.1975,1.8017 32.1985,2.1377 31.1995,2.4727 C28.0015,4.8367 25.2895,7.6597 21.8435,9.7407 C18.6085,11.6937 15.2715,13.1187 11.9155,14.0507 C0.6875,27.0147 -3.1775,45.6017 3.4735,62.6977 C11.5625,83.4907 32.6065,95.4097 53.7815,92.8197 C55.3455,91.8087 57.0345,90.9667 58.8745,90.3297 C59.4885,89.9977 60.1095,89.7447 60.7375,89.5227 C63.1685,88.0997 65.6285,86.7297 68.2165,85.6487 C70.9145,84.5217 73.7145,83.9147 76.5355,83.7127 C93.3795,71.1967 100.5265,48.5477 92.5495,28.0437 C87.3005,14.5507 76.5905,4.8057 63.9355,0.3257" id="Fill-133" fill="#4E4795"></path>
                </g>
                <g id="Group-138" transform="translate(246.000000, 17.830000)">
                    <mask id="mask-43" fill="white">
                        <use xlink:href="#path-42"></use>
                    </mask>
                    <g id="Clip-137"></g>
                    <path d="M3.503,61.519 C10.372,79.178 26.585,90.428 44.286,91.831 L44.286,91.831 C47.338,90.077 50.665,89.03 54.305,88.785 L54.305,88.785 C56.656,88.739 58.973,88.529 61.275,88.186 L61.275,88.186 C61.394,88.15 61.516,88.134 61.635,88.1 L61.635,88.1 L27.729,0.947 C5.152,11.525 -5.67,37.94 3.503,61.519" id="Fill-136" fill="url(#linearGradient-44)" mask="url(#mask-43)"></path>
                </g>
                <g id="Group-149" transform="translate(243.000000, 14.830000)">
                    <path d="M63.3936,87.9094 C41.5576,96.4044 16.9676,85.5894 8.4726,63.7524 C-0.0234,41.9164 10.7926,17.3264 32.6296,8.8314 C54.4666,0.3364 79.0556,11.1514 87.5506,32.9884 C96.0456,54.8244 85.2306,79.4134 63.3936,87.9094 M30.6836,3.8324 C6.0866,13.4024 -6.0964,41.1004 3.4736,65.6974 C13.0426,90.2954 40.7406,102.4774 65.3386,92.9084 C89.9356,83.3384 102.1186,55.6414 92.5486,31.0434 C82.9796,6.4454 55.2816,-5.7366 30.6836,3.8324" id="Fill-139" fill="#1E2657"></path>
                    <path d="M96.7792,165.5941 L80.4342,116.7601 C79.9572,115.5381 78.6462,114.9071 77.5042,115.3521 L71.6302,117.6401 C70.4892,118.0841 69.9492,119.4361 70.4262,120.6591 L83.5372,154.3141 C85.4902,151.2721 92.6512,166.5241 96.7792,165.5941" id="Fill-141" fill="#0E1223"></path>
                    <path d="M102.3057,170.4123 L80.4337,116.7603 C79.9917,115.6253 78.8307,115.0123 77.7537,115.2843 C77.9047,116.3543 91.7137,156.9613 97.4667,174.6513 C98.6987,173.9543 100.7617,170.7603 102.3057,170.4123" id="Fill-143" fill="#4E4795"></path>
                    <path d="M56.2413,28.6755 C57.4743,31.8475 61.0453,33.4205 64.2173,32.1875 C67.3903,30.9555 68.9623,27.3845 67.7293,24.2115 C66.4973,21.0395 62.9263,19.4665 59.7533,20.6995 C56.5813,21.9325 55.0083,25.5035 56.2413,28.6755" id="Fill-145" fill="#FFFFFF"></path>
                    <path d="M68.3317,35.9203 C68.9187,37.4303 70.6187,38.1793 72.1287,37.5923 C73.6387,37.0053 74.3867,35.3053 73.8007,33.7953 C73.2137,32.2853 71.5137,31.5363 70.0037,32.1233 C68.4937,32.7103 67.7447,34.4103 68.3317,35.9203" id="Fill-147" fill="#FFFFFF"></path>
                </g>
                <g id="Group-152" transform="translate(329.000000, 171.830000)">
                    <mask id="mask-46" fill="white">
                        <use xlink:href="#path-45"></use>
                    </mask>
                    <g id="Clip-151"></g>
                    <path d="M0.303,5.634 C0.303,5.634 4.846,10.494 10.197,17.395 L10.197,17.395 C10.166,17.542 10.129,17.676 10.102,17.836 L10.102,17.836 C9.816,19.533 10.303,21.047 11.07,22.29 L11.07,22.29 C11.736,23.37 12.159,24.579 12.202,25.847 L12.202,25.847 C12.202,25.855 12.203,25.862 12.203,25.869 L12.203,25.869 C12.42,32.369 12.737,41.637 12.737,41.637 L12.737,41.637 L26.68,36.438 C26.68,36.438 24.796,30.801 27.204,20.144 L27.204,20.144 C28.078,16.278 27.206,12.621 25.9,11.272 L25.9,11.272 C22.32,7.582 18.223,10.286 18.223,10.286 L18.223,10.286 L15.19,10.273 L4.85,0.456 L0.303,5.634 Z" id="Fill-150" fill="url(#linearGradient-47)" mask="url(#mask-46)"></path>
                </g>
                <g id="Group-157" transform="translate(317.000000, 146.830000)" fill="#FCA372">
                    <polygon id="Fill-153" points="3.9176 8.7218 12.3036 30.6338 17.5886 26.7008 5.7786 6.7898"></polygon>
                    <path d="M4.9566,2.096 C5.4856,2.748 5.7556,3.572 5.7146,4.41 L6.0856,7.573 L5.6536,8.063 L4.1696,9.38 C4.2216,8.725 4.2956,9.38 4.2956,9.38 L1.9096,5.227 C1.9096,5.227 -0.9744,3.377 2.6636,0.648 C3.0116,0.387 3.4986,0.329 3.8596,0.572 C4.7656,1.179 4.9566,2.096 4.9566,2.096" id="Fill-155"></path>
                </g>
                <g id="Group-160" transform="translate(339.000000, 207.830000)">
                    <mask id="mask-49" fill="white">
                        <use xlink:href="#path-48"></use>
                    </mask>
                    <g id="Clip-159"></g>
                    <path d="M0.598,15.183 C0.598,18.27 1.355,37.723 1.355,37.723 L1.355,37.723 C1.355,37.723 14.601,38.682 17.174,38.682 L17.174,38.682 C17.812,22.741 21.445,22.251 21.445,14.817 L21.445,14.817 C21.445,11.586 19.789,7.933 18.518,5.606 L18.518,5.606 C17.604,3.935 17.032,2.768 16.68,0.438 L16.68,0.438 L16.594,0.136 L2.453,0.114 C2.453,0.114 0.598,9.562 0.598,15.183" id="Fill-158" fill="url(#linearGradient-50)" mask="url(#mask-49)"></path>
                </g>
                <g id="Group-165" transform="translate(341.000000, 162.830000)">
                    <path d="M3.3815,2.2376 L12.2435,5.3396 L11.3695,11.9556 C11.3575,12.0486 11.3325,12.1386 11.3155,12.2306 C11.1445,12.2616 10.9745,12.2936 10.8055,12.3346 C10.7775,12.3416 10.7505,12.3506 10.7225,12.3586 C10.6965,12.3646 10.6695,12.3676 10.6425,12.3746 C8.5985,12.8776 7.1505,14.5666 6.4995,16.5216 C5.2405,16.7336 3.9385,16.7346 2.6645,16.4726 C1.7965,16.2946 1.0115,16.0216 0.6495,15.6036 C-1.2205,11.5246 3.3815,2.2376 3.3815,2.2376" id="Fill-161" fill="#FCA372"></path>
                    <path d="M3.5856,7.8676 C5.9716,9.0336 5.4096,21.3296 5.8216,29.7026 C6.0426,34.2086 9.4236,37.8916 13.8786,38.6026 C17.0376,39.1066 20.5046,39.1996 22.5966,38.0076 C21.2136,36.8766 13.7586,25.9076 16.1466,11.3826 C16.4606,9.4716 16.4996,4.1486 13.2796,1.2596 C9.7036,-1.9484 2.3246,2.2376 2.3246,2.2376 C2.3246,2.2376 0.3076,6.2656 3.5856,7.8676" id="Fill-163" fill="#16162F"></path>
                </g>
            </g>
        </g>
    </g>
</svg>